  0
SECTION
  2
HEADER
  9
$ACADVER
  1
AC1032
  9
$ACADMAINTVER
 90
      155
  9
$DWGCODEPAGE
  3
ANSI_1252
  9
$REQUIREDVERSIONS
160
                 0
  9
$INSBASE
 10
0.0
 20
0.0
 30
0.0
  9
$EXTMIN
 10
1.000000000000000E+20
 20
1.000000000000000E+20
 30
1.000000000000000E+20
  9
$EXTMAX
 10
-1.000000000000000E+20
 20
-1.000000000000000E+20
 30
-1.000000000000000E+20
  9
$LIMMIN
 10
0.0
 20
0.0
  9
$LIMMAX
 10
12.0
 20
9.0
  9
$ORTHOMODE
 70
     0
  9
$REGENMODE
 70
     1
  9
$FILLMODE
 70
     1
  9
$QTEXTMODE
 70
     0
  9
$MIRRTEXT
 70
     0
  9
$LTSCALE
 40
1.0
  9
$ATTMODE
 70
     1
  9
$TEXTSIZE
 40
0.2
  9
$TRACEWID
 40
0.05
  9
$TEXTSTYLE
  7
Standard
  9
$CLAYER
  8
0
  9
$CELTYPE
  6
ByLayer
  9
$CECOLOR
 62
   256
  9
$CELTSCALE
 40
1.0
  9
$DISPSILH
 70
     0
  9
$DIMSCALE
 40
1.0
  9
$DIMASZ
 40
0.18
  9
$DIMEXO
 40
0.0625
  9
$DIMDLI
 40
0.38
  9
$DIMRND
 40
0.0
  9
$DIMDLE
 40
0.0
  9
$DIMEXE
 40
0.18
  9
$DIMTP
 40
0.0
  9
$DIMTM
 40
0.0
  9
$DIMTXT
 40
0.18
  9
$DIMCEN
 40
0.09
  9
$DIMTSZ
 40
0.0
  9
$DIMTOL
 70
     0
  9
$DIMLIM
 70
     0
  9
$DIMTIH
 70
     1
  9
$DIMTOH
 70
     1
  9
$DIMSE1
 70
     0
  9
$DIMSE2
 70
     0
  9
$DIMTAD
 70
     0
  9
$DIMZIN
 70
     0
  9
$DIMBLK
  1

  9
$DIMASO
 70
     1
  9
$DIMSHO
 70
     1
  9
$DIMPOST
  1

  9
$DIMAPOST
  1

  9
$DIMALT
 70
     0
  9
$DIMALTD
 70
     2
  9
$DIMALTF
 40
25.4
  9
$DIMLFAC
 40
1.0
  9
$DIMTOFL
 70
     0
  9
$DIMTVP
 40
0.0
  9
$DIMTIX
 70
     0
  9
$DIMSOXD
 70
     0
  9
$DIMSAH
 70
     0
  9
$DIMBLK1
  1

  9
$DIMBLK2
  1

  9
$DIMSTYLE
  2
Standard
  9
$DIMCLRD
 70
     0
  9
$DIMCLRE
 70
     0
  9
$DIMCLRT
 70
     0
  9
$DIMTFAC
 40
1.0
  9
$DIMGAP
 40
0.09
  9
$DIMJUST
 70
     0
  9
$DIMSD1
 70
     0
  9
$DIMSD2
 70
     0
  9
$DIMTOLJ
 70
     1
  9
$DIMTZIN
 70
     0
  9
$DIMALTZ
 70
     0
  9
$DIMALTTZ
 70
     0
  9
$DIMUPT
 70
     0
  9
$DIMDEC
 70
     4
  9
$DIMTDEC
 70
     4
  9
$DIMALTU
 70
     2
  9
$DIMALTTD
 70
     2
  9
$DIMTXSTY
  7
Standard
  9
$DIMAUNIT
 70
     0
  9
$DIMADEC
 70
     0
  9
$DIMALTRND
 40
0.0
  9
$DIMAZIN
 70
     0
  9
$DIMDSEP
 70
    46
  9
$DIMATFIT
 70
     3
  9
$DIMFRAC
 70
     0
  9
$DIMLDRBLK
  1

  9
$DIMLUNIT
 70
     2
  9
$DIMLWD
 70
    -2
  9
$DIMLWE
 70
    -2
  9
$DIMTMOVE
 70
     0
  9
$DIMFXL
 40
1.0
  9
$DIMFXLON
 70
     0
  9
$DIMJOGANG
 40
0.7853981633974483
  9
$DIMTFILL
 70
     0
  9
$DIMTFILLCLR
 70
     0
  9
$DIMARCSYM
 70
     0
  9
$DIMLTYPE
  6

  9
$DIMLTEX1
  6

  9
$DIMLTEX2
  6

  9
$DIMTXTDIRECTION
 70
     0
  9
$LUNITS
 70
     2
  9
$LUPREC
 70
     4
  9
$SKETCHINC
 40
0.1
  9
$FILLETRAD
 40
0.0
  9
$AUNITS
 70
     0
  9
$AUPREC
 70
     0
  9
$MENU
  1
.
  9
$ELEVATION
 40
0.0
  9
$PELEVATION
 40
0.0
  9
$THICKNESS
 40
0.0
  9
$LIMCHECK
 70
     0
  9
$CHAMFERA
 40
0.0
  9
$CHAMFERB
 40
0.0
  9
$CHAMFERC
 40
0.0
  9
$CHAMFERD
 40
0.0
  9
$SKPOLY
 70
     0
  9
$TDCREATE
 40
2459790.145821759
  9
$TDUCREATE
 40
2459789.854155093
  9
$TDUPDATE
 40
2459790.145821759
  9
$TDUUPDATE
 40
2459789.854155093
  9
$TDINDWG
 40
0.0000000000
  9
$TDUSRTIMER
 40
0.0000000000
  9
$USRTIMER
 70
     1
  9
$ANGBASE
 50
0.0
  9
$ANGDIR
 70
     0
  9
$PDMODE
 70
     0
  9
$PDSIZE
 40
0.0
  9
$PLINEWID
 40
0.0
  9
$SPLFRAME
 70
     0
  9
$SPLINETYPE
 70
     6
  9
$SPLINESEGS
 70
     8
  9
$HANDSEED
  5
CD
  9
$SURFTAB1
 70
     6
  9
$SURFTAB2
 70
     6
  9
$SURFTYPE
 70
     6
  9
$SURFU
 70
     6
  9
$SURFV
 70
     6
  9
$UCSBASE
  2

  9
$UCSNAME
  2

  9
$UCSORG
 10
0.0
 20
0.0
 30
0.0
  9
$UCSXDIR
 10
1.0
 20
0.0
 30
0.0
  9
$UCSYDIR
 10
0.0
 20
1.0
 30
0.0
  9
$UCSORTHOREF
  2

  9
$UCSORTHOVIEW
 70
     0
  9
$UCSORGTOP
 10
0.0
 20
0.0
 30
0.0
  9
$UCSORGBOTTOM
 10
0.0
 20
0.0
 30
0.0
  9
$UCSORGLEFT
 10
0.0
 20
0.0
 30
0.0
  9
$UCSORGRIGHT
 10
0.0
 20
0.0
 30
0.0
  9
$UCSORGFRONT
 10
0.0
 20
0.0
 30
0.0
  9
$UCSORGBACK
 10
0.0
 20
0.0
 30
0.0
  9
$PUCSBASE
  2

  9
$PUCSNAME
  2

  9
$PUCSORG
 10
0.0
 20
0.0
 30
0.0
  9
$PUCSXDIR
 10
1.0
 20
0.0
 30
0.0
  9
$PUCSYDIR
 10
0.0
 20
1.0
 30
0.0
  9
$PUCSORTHOREF
  2

  9
$PUCSORTHOVIEW
 70
     0
  9
$PUCSORGTOP
 10
0.0
 20
0.0
 30
0.0
  9
$PUCSORGBOTTOM
 10
0.0
 20
0.0
 30
0.0
  9
$PUCSORGLEFT
 10
0.0
 20
0.0
 30
0.0
  9
$PUCSORGRIGHT
 10
0.0
 20
0.0
 30
0.0
  9
$PUCSORGFRONT
 10
0.0
 20
0.0
 30
0.0
  9
$PUCSORGBACK
 10
0.0
 20
0.0
 30
0.0
  9
$USERI1
 70
     0
  9
$USERI2
 70
     0
  9
$USERI3
 70
     0
  9
$USERI4
 70
     0
  9
$USERI5
 70
     0
  9
$USERR1
 40
0.0
  9
$USERR2
 40
0.0
  9
$USERR3
 40
0.0
  9
$USERR4
 40
0.0
  9
$USERR5
 40
0.0
  9
$WORLDVIEW
 70
     1
  9
$SHADEDGE
 70
     3
  9
$SHADEDIF
 70
    70
  9
$TILEMODE
 70
     1
  9
$MAXACTVP
 70
    64
  9
$PINSBASE
 10
0.0
 20
0.0
 30
0.0
  9
$PLIMCHECK
 70
     0
  9
$PEXTMIN
 10
1.000000000000000E+20
 20
1.000000000000000E+20
 30
1.000000000000000E+20
  9
$PEXTMAX
 10
-1.000000000000000E+20
 20
-1.000000000000000E+20
 30
-1.000000000000000E+20
  9
$PLIMMIN
 10
0.0
 20
0.0
  9
$PLIMMAX
 10
12.0
 20
9.0
  9
$UNITMODE
 70
     0
  9
$VISRETAIN
 70
     1
  9
$PLINEGEN
 70
     0
  9
$PSLTSCALE
 70
     1
  9
$TREEDEPTH
 70
  3020
  9
$CMLSTYLE
  2
Standard
  9
$CMLJUST
 70
     0
  9
$CMLSCALE
 40
1.0
  9
$PROXYGRAPHICS
 70
     1
  9
$MEASUREMENT
 70
     0
  9
$CELWEIGHT
370
    -1
  9
$ENDCAPS
280
     0
  9
$JOINSTYLE
280
     0
  9
$LWDISPLAY
290
     1
  9
$INSUNITS
 70
     4
  9
$HYPERLINKBASE
  1

  9
$STYLESHEET
  1

  9
$XEDIT
290
     1
  9
$CEPSNTYPE
380
     0
  9
$PSTYLEMODE
290
     1
  9
$FINGERPRINTGUID
  2
{5C28A9D4-3870-8045-BC12-08981322241E}
  9
$VERSIONGUID
  2
{3AC1E7F0-5BF0-7B4A-9DF7-03003927D115}
  9
$EXTNAMES
290
     1
  9
$PSVPSCALE
 40
0.0
  9
$OLESTARTUP
290
     0
  9
$SORTENTS
280
   127
  9
$INDEXCTL
280
     0
  9
$HIDETEXT
280
     1
  9
$XCLIPFRAME
280
     2
  9
$HALOGAP
280
     0
  9
$OBSCOLOR
 70
   257
  9
$OBSLTYPE
280
     0
  9
$INTERSECTIONDISPLAY
280
     0
  9
$INTERSECTIONCOLOR
 70
   257
  9
$DIMASSOC
280
     2
  9
$PROJECTNAME
  1

  9
$CAMERADISPLAY
290
     0
  9
$LENSLENGTH
 40
50.0
  9
$CAMERAHEIGHT
 40
0.0
  9
$STEPSPERSEC
 40
2.0
  9
$STEPSIZE
 40
6.0
  9
$3DDWFPREC
 40
2.0
  9
$PSOLWIDTH
 40
0.25
  9
$PSOLHEIGHT
 40
4.0
  9
$LOFTANG1
 40
1.570796326794896
  9
$LOFTANG2
 40
1.570796326794896
  9
$LOFTMAG1
 40
0.0
  9
$LOFTMAG2
 40
0.0
  9
$LOFTPARAM
 70
     7
  9
$LOFTNORMALS
280
     1
  9
$LATITUDE
 40
37.795
  9
$LONGITUDE
 40
-122.394
  9
$NORTHDIRECTION
 40
0.0
  9
$TIMEZONE
 70
 -8000
  9
$LIGHTGLYPHDISPLAY
280
     1
  9
$TILEMODELIGHTSYNCH
280
     1
  9
$CMATERIAL
347
11
  9
$SOLIDHIST
280
     0
  9
$SHOWHIST
280
     1
  9
$DWFFRAME
280
     2
  9
$DGNFRAME
280
     0
  9
$REALWORLDSCALE
290
     1
  9
$INTERFERECOLOR
 62
     1
  9
$INTERFEREOBJVS
345
33
  9
$INTERFEREVPVS
346
30
  9
$CSHADOW
280
     0
  9
$SHADOWPLANELOCATION
 40
0.0
  0
ENDSEC
  0
SECTION
  2
CLASSES
  0
CLASS
  1
ACDBDICTIONARYWDFLT
  2
AcDbDictionaryWithDefault
  3
ObjectDBX Classes
 90
        0
 91
        1
280
     0
281
     0
  0
CLASS
  1
MATERIAL
  2
AcDbMaterial
  3
ObjectDBX Classes
 90
     1153
 91
        3
280
     0
281
     0
  0
CLASS
  1
VISUALSTYLE
  2
AcDbVisualStyle
  3
ObjectDBX Classes
 90
     4095
 91
       24
280
     0
281
     0
  0
CLASS
  1
SCALE
  2
AcDbScale
  3
ObjectDBX Classes
 90
     1153
 91
       17
280
     0
281
     0
  0
CLASS
  1
TABLESTYLE
  2
AcDbTableStyle
  3
ObjectDBX Classes
 90
     4095
 91
        1
280
     0
281
     0
  0
CLASS
  1
MLEADERSTYLE
  2
AcDbMLeaderStyle
  3
ACDB_MLEADERSTYLE_CLASS
 90
     4095
 91
        1
280
     0
281
     0
  0
CLASS
  1
ACDBSECTIONVIEWSTYLE
  2
AcDbSectionViewStyle
  3
ObjectDBX Classes
 90
     1025
 91
        1
280
     0
281
     0
  0
CLASS
  1
ACDBDETAILVIEWSTYLE
  2
AcDbDetailViewStyle
  3
ObjectDBX Classes
 90
     1025
 91
        1
280
     0
281
     0
  0
CLASS
  1
DICTIONARYVAR
  2
AcDbDictionaryVar
  3
ObjectDBX Classes
 90
        0
 91
        5
280
     0
281
     0
  0
CLASS
  1
CELLSTYLEMAP
  2
AcDbCellStyleMap
  3
ObjectDBX Classes
 90
     1152
 91
        1
280
     0
281
     0
  0
ENDSEC
  0
SECTION
  2
TABLES
  0
TABLE
  2
VPORT
  5
8
330
0
100
AcDbSymbolTable
 70
     1
  0
VPORT
  5
57
330
8
100
AcDbSymbolTableRecord
100
AcDbViewportTableRecord
  2
*Active
 70
     0
 10
0.0
 20
0.0
 11
1.0
 21
1.0
 12
0.0
 22
0.0
 13
0.0
 23
0.0
 14
1.0
 24
1.0
 15
0.0
 25
0.0
 16
0.0
 26
0.0
 36
1.0
 17
104.9999970067687
 27
148.5000119155985
 37
0.0
 40
302.940024307821
 41
0.7070706301791173
 42
50.0
 43
0.0
 44
0.0
 50
0.0
 51
0.0
 71
     0
 72
   100
 73
     1
 74
     0
 75
     1
 76
     0
 77
     0
 78
     0
281
     0
 65
     1
110
0.0
120
0.0
130
0.0
111
1.0
121
0.0
131
0.0
112
0.0
122
1.0
132
0.0
 79
     0
146
0.0
 60
     3
 61
     5
292
     1
282
     1
141
0.0
142
0.0
 63
   250
421
  3355443
  0
ENDTAB
  0
TABLE
  2
LTYPE
  5
5
330
0
100
AcDbSymbolTable
 70
     1
  0
LTYPE
  5
5B
330
5
100
AcDbSymbolTableRecord
100
AcDbLinetypeTableRecord
  2
ByBlock
 70
     0
  3

 72
    65
 73
     0
 40
0.0
  0
LTYPE
  5
5C
330
5
100
AcDbSymbolTableRecord
100
AcDbLinetypeTableRecord
  2
ByLayer
 70
     0
  3

 72
    65
 73
     0
 40
0.0
  0
LTYPE
  5
5D
330
5
100
AcDbSymbolTableRecord
100
AcDbLinetypeTableRecord
  2
Continuous
 70
     0
  3
Solid line
 72
    65
 73
     0
 40
0.0
  0
ENDTAB
  0
TABLE
  2
LAYER
  5
2
330
0
100
AcDbSymbolTable
 70
    12
  0
LAYER
  5
54
330
2
100
AcDbSymbolTableRecord
100
AcDbLayerTableRecord
  2
0
 70
     0
 62
     7
  6
Continuous
370
    -3
390
F
347
21
348
0
  0
LAYER
  5
78
330
2
100
AcDbSymbolTableRecord
100
AcDbLayerTableRecord
  2
BottomSilkLayer
 70
     0
 62
     7
  6
Continuous
370
     0
390
F
347
21
348
0
  0
LAYER
  5
79
330
2
100
AcDbSymbolTableRecord
100
AcDbLayerTableRecord
  2
BoardOutLine
 70
     0
 62
     7
  6
Continuous
370
     0
390
F
347
21
348
0
  0
LAYER
  5
82
330
2
100
AcDbSymbolTableRecord
100
AcDbLayerTableRecord
  2
TopSilkLayer
 70
     0
 62
     7
  6
Continuous
370
     0
390
F
347
21
348
0
  0
LAYER
  5
93
330
2
100
AcDbSymbolTableRecord
100
AcDbLayerTableRecord
  2
Document
 70
     0
 62
     7
  6
Continuous
370
     0
390
F
347
21
348
0
  0
LAYER
  5
94
330
2
100
AcDbSymbolTableRecord
100
AcDbLayerTableRecord
  2
TopSolderMaskLayer
 70
     0
 62
     7
  6
Continuous
370
     0
390
F
347
21
348
0
  0
LAYER
  5
95
330
2
100
AcDbSymbolTableRecord
100
AcDbLayerTableRecord
  2
BottomSolderMaskLayer
 70
     0
 62
     7
  6
Continuous
370
     0
390
F
347
21
348
0
  0
LAYER
  5
96
330
2
100
AcDbSymbolTableRecord
100
AcDbLayerTableRecord
  2
Multi-Layer
 70
     0
 62
     7
  6
Continuous
370
     0
390
F
347
21
348
0
  0
LAYER
  5
C0
330
2
100
AcDbSymbolTableRecord
100
AcDbLayerTableRecord
  2
BottomPasteMaskLayer
 70
     0
 62
     7
  6
Continuous
370
     0
390
F
347
21
348
0
  0
LAYER
  5
C1
330
2
100
AcDbSymbolTableRecord
100
AcDbLayerTableRecord
  2
BottomLayer
 70
     0
 62
     7
  6
Continuous
370
     0
390
F
347
21
348
0
  0
LAYER
  5
C2
330
2
100
AcDbSymbolTableRecord
100
AcDbLayerTableRecord
  2
TopPasteMaskLayer
 70
     0
 62
     7
  6
Continuous
370
     0
390
F
347
21
348
0
  0
LAYER
  5
C3
330
2
100
AcDbSymbolTableRecord
100
AcDbLayerTableRecord
  2
TopLayer
 70
     0
 62
     7
  6
Continuous
370
     0
390
F
347
21
348
0
  0
ENDTAB
  0
TABLE
  2
STYLE
  5
3
330
0
100
AcDbSymbolTable
 70
     2
  0
STYLE
  5
55
330
3
100
AcDbSymbolTableRecord
100
AcDbTextStyleTableRecord
  2
Standard
 70
     0
 40
0.0
 41
1.0
 50
0.0
 71
     0
 42
0.2
  3
txt
  4

  0
STYLE
  5
5A
330
3
100
AcDbSymbolTableRecord
100
AcDbTextStyleTableRecord
  2
Annotative
 70
     0
 40
0.0
 41
1.0
 50
0.0
 71
     0
 42
0.2
  3
txt
  4

1001
AcadAnnotative
1000
AnnotativeData
1002
{
1070
     1
1070
     1
1002
}
  0
ENDTAB
  0
TABLE
  2
VIEW
  5
6
330
0
100
AcDbSymbolTable
 70
     0
  0
ENDTAB
  0
TABLE
  2
UCS
  5
7
330
0
100
AcDbSymbolTable
 70
     0
  0
ENDTAB
  0
TABLE
  2
APPID
  5
9
330
0
100
AcDbSymbolTable
 70
     2
  0
APPID
  5
56
330
9
100
AcDbSymbolTableRecord
100
AcDbRegAppTableRecord
  2
ACAD
 70
     0
  0
APPID
  5
5E
330
9
100
AcDbSymbolTableRecord
100
AcDbRegAppTableRecord
  2
AcadAnnotative
 70
     0
  0
ENDTAB
  0
TABLE
  2
DIMSTYLE
  5
A
330
0
100
AcDbSymbolTable
 70
     2
100
AcDbDimStyleTable
 71
     0
  0
DIMSTYLE
105
58
330
A
100
AcDbSymbolTableRecord
100
AcDbDimStyleTableRecord
  2
Standard
 70
     0
340
55
  0
DIMSTYLE
105
59
330
A
100
AcDbSymbolTableRecord
100
AcDbDimStyleTableRecord
  2
Annotative
 70
     0
340
55
1001
AcadAnnotative
1000
AnnotativeData
1002
{
1070
     1
1070
     1
1002
}
  0
ENDTAB
  0
TABLE
  2
BLOCK_RECORD
  5
1
330
0
100
AcDbSymbolTable
 70
     1
  0
BLOCK_RECORD
  5
70
330
1
100
AcDbSymbolTableRecord
100
AcDbBlockTableRecord
  2
*Model_Space
340
73
 70
     0
280
     1
281
     0
  0
BLOCK_RECORD
  5
6C
330
1
100
AcDbSymbolTableRecord
100
AcDbBlockTableRecord
  2
*Paper_Space
340
6F
 70
     0
280
     1
281
     0
  0
BLOCK_RECORD
  5
74
330
1
100
AcDbSymbolTableRecord
100
AcDbBlockTableRecord
  2
*Paper_Space0
340
77
 70
     0
280
     1
281
     0
  0
ENDTAB
  0
ENDSEC
  0
SECTION
  2
BLOCKS
  0
BLOCK
  5
71
330
70
100
AcDbEntity
  8
0
100
AcDbBlockBegin
  2
*Model_Space
 70
     0
 10
0.0
 20
0.0
 30
0.0
  3
*Model_Space
  1

  0
ENDBLK
  5
72
330
70
100
AcDbEntity
  8
0
100
AcDbBlockEnd
  0
BLOCK
  5
6D
330
6C
100
AcDbEntity
 67
     1
  8
0
100
AcDbBlockBegin
  2
*Paper_Space
 70
     0
 10
0.0
 20
0.0
 30
0.0
  3
*Paper_Space
  1

  0
ENDBLK
  5
6E
330
6C
100
AcDbEntity
 67
     1
  8
0
100
AcDbBlockEnd
  0
BLOCK
  5
75
330
74
100
AcDbEntity
 67
     1
  8
0
100
AcDbBlockBegin
  2
*Paper_Space0
 70
     0
 10
0.0
 20
0.0
 30
0.0
  3
*Paper_Space0
  1

  0
ENDBLK
  5
76
330
74
100
AcDbEntity
 67
     1
  8
0
100
AcDbBlockEnd
  0
ENDSEC
  0
SECTION
  2
ENTITIES
  0
LWPOLYLINE
  5
7A
330
70
100
AcDbEntity
  8
BoardOutLine
 62
    18
420
        0
370
     9
100
AcDbPolyline
 90
       56
 70
     1
 43
0.0
 10
99.26512916847606
 20
200.0308280649566
 10
7.269828177874149
 20
200.0308280649566
 10
6.589919618057076
 20
200.0389052811121
 10
6.106836051889904
 20
200.1021514076035
 10
5.644478927175448
 20
200.2246812526633
 10
5.206810651839249
 20
200.4024816082648
 10
4.797895234008375
 20
200.6314122661251
 10
4.421745881709616
 20
200.9075616184239
 10
4.082655203528223
 20
201.2266624566255
 10
3.78450940723658
 20
201.5847269727547
 10
3.531499501216802
 20
201.9777673588357
 10
3.327587893393466
 20
202.4015418063844
 10
3.17691479204744
 20
202.852113307527
 10
3.083518805255171
 20
203.3253924540857
 10
3.051514741247224
 20
203.8172136377281
 10
3.051514741247224
 20
280.8826187685384
 10
3.059591957401723
 20
281.4923723880456
 10
3.122838083894092
 20
281.9754559542128
 10
3.245367928953612
 20
282.4378638790289
 10
3.423219084656026
 20
282.875557554416
 10
3.652175142568275
 20
283.2844475721959
 10
3.928248294714197
 20
283.6604953242915
 10
4.247349132916095
 20
283.9996368025745
 10
4.605413649044654
 20
284.2977317987642
 10
4.998454035125634
 20
284.5507925048862
 10
5.422228482674712
 20
284.7547041127092
 10
5.872825383868877
 20
284.9053772140552
 10
6.346079130375999
 20
284.9987732008472
 10
6.837976514170893
 20
285.0307772648552
 10
98.83327750477249
 20
285.0307772648552
 10
99.51305906433582
 20
285.0227254487519
 10
99.99611723045235
 20
284.9594539222083
 10
100.4586013554193
 20
284.8369240771491
 10
100.8962950308051
 20
284.6591491215992
 10
101.3051850485831
 20
284.4301930636873
 10
101.6812328006775
 20
284.1540437113885
 10
102.0203234788576
 20
283.834942873187
 10
102.3184692751489
 20
283.4768783570577
 10
102.5714791811671
 20
283.0838633710277
 10
102.7753653889385
 20
282.660063523428
 10
102.9260638903364
 20
282.2094920222848
 10
103.0194598771281
 20
281.7362128757267
 10
103.0515655413385
 20
281.2443916920841
 10
103.0433867249802
 20
203.5692329417671
 10
102.9801405984895
 20
203.0861493756003
 10
102.8577123536321
 20
202.6237414507836
 10
102.6798611979313
 20
202.1860477753961
 10
102.450930540071
 20
201.7771577576168
 10
102.1747303876713
 20
201.4011100055212
 10
101.8556041494191
 20
201.0619685272376
 10
101.4975650333434
 20
200.7638735310479
 10
101.1045246472637
 20
200.5108128249262
 10
100.6807247996646
 20
200.3069012171032
 10
100.2301532985227
 20
200.1562281157572
 10
99.75700115222034
 20
200.0628321289652
 10
99.26512916847606
 20
200.0308280649566
  0
LWPOLYLINE
  5
7B
330
70
100
AcDbEntity
  8
BoardOutLine
 62
    18
420
        0
370
     9
100
AcDbPolyline
 90
       56
 70
     1
 43
0.0
 10
203.0904866780167
 20
200.1952948669257
 10
111.0951856874144
 20
200.1952948669257
 10
110.415277127597
 20
200.2033720830805
 10
109.9321935614295
 20
200.2666182095726
 10
109.469836436716
 20
200.3891480546324
 10
109.0321681613795
 20
200.5669484102333
 10
108.6232527435486
 20
200.7958790680942
 10
108.2471033912502
 20
201.072028420393
 10
107.9080127130688
 20
201.3911292585942
 10
107.6098669167765
 20
201.7491937747238
 10
107.3568570107574
 20
202.1422341608047
 10
107.1529454029337
 20
202.5660086083535
 10
107.0022723015877
 20
203.0165801094961
 10
106.9088763147951
 20
203.4898592560548
 10
106.8768722507872
 20
203.9816804396972
 10
106.8768722507872
 20
281.0470855705078
 10
106.8849494669413
 20
281.6568391900147
 10
106.948195593434
 20
282.1399227561816
 10
107.0707254384939
 20
282.6023306809979
 10
107.2485765941966
 20
283.0400243563854
 10
107.4775326521085
 20
283.448914374165
 10
107.7536058042545
 20
283.8249621262609
 10
108.0727066424567
 20
284.1641036045432
 10
108.4307711585852
 20
284.4621986007336
 10
108.8238115446656
 20
284.7152593068556
 10
109.247585992215
 20
284.9191709146777
 10
109.6981828934091
 20
285.0698440160244
 10
110.1714366399163
 20
285.1632400028163
 10
110.6633340237115
 20
285.1952440668246
 10
202.6586350143131
 20
285.1952440668246
 10
203.3384165738764
 20
285.1871922507204
 10
203.8214747399929
 20
285.1239207241773
 10
204.2839588649612
 20
285.0013908791181
 10
204.7216525403486
 20
284.8236159235683
 10
205.1305425581279
 20
284.5946598656567
 10
205.5065903102232
 20
284.3185105133579
 10
205.8456809884046
 20
283.9994096751554
 10
206.1438267846969
 20
283.6413451590262
 10
206.3968366907161
 20
283.2483301729967
 10
206.6007228984881
 20
282.8245303253974
 10
206.7514213998864
 20
282.3739588242542
 10
206.8448173866783
 20
281.9006796776958
 10
206.8769230508888
 20
281.4088584940534
 10
206.8687442345308
 20
203.7336997437356
 10
206.8054981080394
 20
203.2506161775687
 10
206.6830698631821
 20
202.7882082527527
 10
206.5052187074806
 20
202.3505145773652
 10
206.2762880496196
 20
201.9416245595853
 10
206.000087897219
 20
201.56557680749
 10
205.6809616589658
 20
201.2264353292067
 10
205.3229225428888
 20
200.928340333017
 10
204.9298821568079
 20
200.6752796268953
 10
204.5060823092075
 20
200.4713680190723
 10
204.0555108080642
 20
200.3206949177263
 10
203.5823586617609
 20
200.2272989309346
 10
203.0904866780167
 20
200.1952948669257
  0
CIRCLE
  5
7C
330
70
100
AcDbEntity
  8
BoardOutLine
 62
    18
420
        0
370
     9
100
AcDbCircle
 10
110.6843906658239
 20
281.4007304777974
 30
0.0
 40
1.499999999624979
  0
CIRCLE
  5
7D
330
70
100
AcDbEntity
  8
BoardOutLine
 62
    18
420
        0
370
     9
100
AcDbCircle
 10
110.6843652657731
 20
204.0008066779495
 30
0.0
 40
1.4999999996253
  0
CIRCLE
  5
7E
330
70
100
AcDbEntity
  8
BoardOutLine
 62
    18
420
        0
370
     9
100
AcDbCircle
 10
203.0843398657228
 20
281.4007304777974
 30
0.0
 40
1.499999999624979
  0
CIRCLE
  5
7F
330
70
100
AcDbEntity
  8
BoardOutLine
 62
    18
420
        0
370
     9
100
AcDbCircle
 10
203.0844414659255
 20
204.0009082781525
 30
0.0
 40
1.49999999962514
  0
CIRCLE
  5
80
330
70
100
AcDbEntity
  8
BoardOutLine
 62
    18
420
        0
370
     9
100
AcDbCircle
 10
66.68367935011421
 20
180.4585887238979
 30
0.0
 40
8.449999997887424
  0
CIRCLE
  5
81
330
70
100
AcDbEntity
  8
BoardOutLine
 62
    18
420
        0
370
     9
100
AcDbCircle
 10
40.67402733081026
 20
180.4585887238979
 30
0.0
 40
8.449999997887463
  0
SPLINE
  5
83
330
70
100
AcDbEntity
  8
TopSilkLayer
 62
    18
420
        0
370
     9
100
AcDbSpline
210
0.0
220
0.0
230
1.0
 70
     8
 71
     3
 72
    17
 73
    13
 74
     0
 42
0.0000000001
 43
0.0000000001
 40
0.0
 40
0.0
 40
0.0
 40
0.0
 40
1.0
 40
1.0
 40
1.0
 40
2.0
 40
2.0
 40
2.0
 40
3.0
 40
3.0
 40
3.0
 40
4.0
 40
4.0
 40
4.0
 40
4.0
 10
93.20926286154126
 20
271.0368838620527
 30
0.0
 10
93.20678807692116
 20
273.0527224223016
 30
0.0
 10
91.57062183406358
 20
274.6848762465086
 30
0.0
 10
89.55478327381433
 20
274.6824014618884
 30
0.0
 10
87.53894471356446
 20
274.6799266772681
 30
0.0
 10
85.90679088935784
 20
273.0437604344104
 30
0.0
 10
85.90926567397795
 20
271.0279218741609
 30
0.0
 10
85.91174045859805
 20
269.0120833139113
 30
0.0
 10
87.54790670145693
 20
267.3799294897051
 30
0.0
 10
89.56374526170552
 20
267.3824042743245
 30
0.0
 10
91.57608483894755
 20
267.3848747633483
 30
0.0
 10
93.20679237251807
 20
269.0155822969198
 30
0.0
 10
93.20926286154126
 20
271.0279218741609
 30
0.0
  0
SPLINE
  5
84
330
70
100
AcDbEntity
  8
TopSilkLayer
 62
    18
420
        0
370
     9
100
AcDbSpline
210
0.0
220
0.0
230
1.0
 70
     8
 71
     3
 72
    17
 73
    13
 74
     0
 42
0.0000000001
 43
0.0000000001
 40
0.0
 40
0.0
 40
0.0
 40
0.0
 40
1.0
 40
1.0
 40
1.0
 40
2.0
 40
2.0
 40
2.0
 40
3.0
 40
3.0
 40
3.0
 40
4.0
 40
4.0
 40
4.0
 40
4.0
 10
67.90885425112797
 20
256.435541889401
 30
0.0
 10
67.91132903574808
 20
254.4197033291512
 30
0.0
 10
69.54749527860567
 20
252.7875495049443
 30
0.0
 10
71.56333383885556
 20
252.790024289565
 30
0.0
 10
73.57917239910543
 20
252.7924990741848
 30
0.0
 10
75.21132622331268
 20
254.4286653170427
 30
0.0
 10
75.20885143869193
 20
256.4445038772926
 30
0.0
 10
75.20637665407247
 20
258.4603424375418
 30
0.0
 10
73.57021041121361
 20
260.092496261749
 30
0.0
 10
71.55437185096437
 20
260.090021477129
 30
0.0
 10
69.54203227372298
 20
260.0875509881054
 30
0.0
 10
67.91132474015182
 20
258.4568434545333
 30
0.0
 10
67.90885425112797
 20
256.4445038772926
 30
0.0
  0
SPLINE
  5
85
330
70
100
AcDbEntity
  8
TopSilkLayer
 62
    18
420
        0
370
     9
100
AcDbSpline
210
0.0
220
0.0
230
1.0
 70
     8
 71
     3
 72
    17
 73
    13
 74
     0
 42
0.0000000001
 43
0.0000000001
 40
0.0
 40
0.0
 40
0.0
 40
0.0
 40
1.0
 40
1.0
 40
1.0
 40
2.0
 40
2.0
 40
2.0
 40
3.0
 40
3.0
 40
3.0
 40
4.0
 40
4.0
 40
4.0
 40
4.0
 10
49.40893045127984
 20
271.0355418894009
 30
0.0
 10
49.41140523590026
 20
269.0197033291513
 30
0.0
 10
51.04757147875817
 20
267.3875495049444
 30
0.0
 10
53.06341003900772
 20
267.3900242895645
 30
0.0
 10
55.07924859925729
 20
267.392499074185
 30
0.0
 10
56.71140242346454
 20
269.0286653170422
 30
0.0
 10
56.7089276388438
 20
271.0445038772918
 30
0.0
 10
56.7064528542237
 20
273.0603424375417
 30
0.0
 10
55.07028661136643
 20
274.6924962617482
 30
0.0
 10
53.05444805111559
 20
274.6900214771282
 30
0.0
 10
51.04210847387547
 20
274.687550988105
 30
0.0
 10
49.41140094030433
 20
273.0568434545332
 30
0.0
 10
49.40893045127984
 20
271.0445038772921
 30
0.0
  0
SPLINE
  5
86
330
70
100
AcDbEntity
  8
TopSilkLayer
 62
    18
420
        0
370
     9
100
AcDbSpline
210
0.0
220
0.0
230
1.0
 70
     8
 71
     3
 72
    17
 73
    13
 74
     0
 42
0.0000000001
 43
0.0000000001
 40
0.0
 40
0.0
 40
0.0
 40
0.0
 40
1.0
 40
1.0
 40
1.0
 40
2.0
 40
2.0
 40
2.0
 40
3.0
 40
3.0
 40
3.0
 40
4.0
 40
4.0
 40
4.0
 40
4.0
 10
30.90791444924879
 20
256.4355418894007
 30
0.0
 10
30.91038923386889
 20
254.4197033291515
 30
0.0
 10
32.54655547672648
 20
252.7875495049443
 30
0.0
 10
34.56239403697603
 20
252.790024289565
 30
0.0
 10
36.57823259722495
 20
252.7924990741851
 30
0.0
 10
38.21038642143188
 20
254.4286653170427
 30
0.0
 10
38.20791163681178
 20
256.4445038772926
 30
0.0
 10
38.20543685219167
 20
258.4603424375415
 30
0.0
 10
36.56927060933377
 20
260.0924962617484
 30
0.0
 10
34.55343204908453
 20
260.090021477128
 30
0.0
 10
32.54109247184377
 20
260.0875509881045
 30
0.0
 10
30.91038493827263
 20
258.4568434545333
 30
0.0
 10
30.90791444924879
 20
256.4445038772926
 30
0.0
  0
SPLINE
  5
87
330
70
100
AcDbEntity
  8
TopSilkLayer
 62
    18
420
        0
370
     9
100
AcDbSpline
210
0.0
220
0.0
230
1.0
 70
     8
 71
     3
 72
    17
 73
    13
 74
     0
 42
0.0000000001
 43
0.0000000001
 40
0.0
 40
0.0
 40
0.0
 40
0.0
 40
1.0
 40
1.0
 40
1.0
 40
2.0
 40
2.0
 40
2.0
 40
3.0
 40
3.0
 40
3.0
 40
4.0
 40
4.0
 40
4.0
 40
4.0
 10
20.20832305966272
 20
271.0368838620514
 30
0.0
 10
20.20584827504262
 20
273.0527224223013
 30
0.0
 10
18.56968203218503
 20
274.6848762465079
 30
0.0
 10
16.55384347193579
 20
274.6824014618878
 30
0.0
 10
14.53800491168623
 20
274.6799266772671
 30
0.0
 10
12.90585108747867
 20
273.0437604344098
 30
0.0
 10
12.90832587209973
 20
271.0279218741609
 30
0.0
 10
12.91080065671983
 20
269.0120833139104
 30
0.0
 10
14.54696689957773
 20
267.3799294897035
 30
0.0
 10
16.56280545982697
 20
267.3824042743238
 30
0.0
 10
18.57514503706773
 20
267.3848747633473
 30
0.0
 10
20.20585257063888
 20
269.0155822969188
 30
0.0
 10
20.20832305966272
 20
271.0279218741609
 30
0.0
  0
CIRCLE
  5
88
330
70
100
AcDbEntity
  8
TopSilkLayer
 62
    18
420
        0
370
     9
100
AcDbCircle
 10
53.10455004731778
 20
252.187876579054
 30
0.0
 40
2.999999999249799
  0
SPLINE
  5
89
330
70
100
AcDbEntity
  8
TopSilkLayer
 62
    18
420
        0
370
     9
100
AcDbSpline
210
0.0
220
0.0
230
1.0
 70
     8
 71
     3
 72
    17
 73
    13
 74
     0
 42
0.0000000001
 43
0.0000000001
 40
0.0
 40
0.0
 40
0.0
 40
0.0
 40
1.0
 40
1.0
 40
1.0
 40
2.0
 40
2.0
 40
2.0
 40
3.0
 40
3.0
 40
3.0
 40
4.0
 40
4.0
 40
4.0
 40
4.0
 10
23.15944993974969
 20
232.1523512132932
 30
0.0
 10
23.15531399832979
 20
235.5212868893262
 30
0.0
 10
20.42089918150009
 20
238.248996020192
 30
0.0
 10
17.0519635054667
 20
238.2448600787718
 30
0.0
 10
13.68302782943204
 20
238.2407241373513
 30
0.0
 10
10.95531869856563
 20
235.5063093205215
 30
0.0
 10
10.95945463998648
 20
232.1373736444879
 30
0.0
 10
10.96359058140638
 20
228.7684379684545
 30
0.0
 10
13.69800539823769
 20
226.0407288375878
 30
0.0
 10
17.0669410742701
 20
226.044864779008
 30
0.0
 10
20.4300291348653
 20
226.0489935414856
 30
0.0
 10
23.1553211772717
 20
228.7742855838933
 30
0.0
 10
23.15944993974969
 20
232.1373736444879
 30
0.0
  0
SPLINE
  5
8A
330
70
100
AcDbEntity
  8
TopSilkLayer
 62
    18
420
        0
370
     9
100
AcDbSpline
210
0.0
220
0.0
230
1.0
 70
     8
 71
     3
 72
    17
 73
    13
 74
     0
 42
0.0000000001
 43
0.0000000001
 40
0.0
 40
0.0
 40
0.0
 40
0.0
 40
1.0
 40
1.0
 40
1.0
 40
2.0
 40
2.0
 40
2.0
 40
3.0
 40
3.0
 40
3.0
 40
4.0
 40
4.0
 40
4.0
 40
4.0
 10
41.15106709696862
 20
232.1466086390377
 30
0.0
 10
41.14693115554906
 20
235.5155443150708
 30
0.0
 10
38.4125163387187
 20
238.2432534459359
 30
0.0
 10
35.04358066268533
 20
238.239117504516
 30
0.0
 10
31.67464498665131
 20
238.2349815630955
 30
0.0
 10
28.94693585578489
 20
235.500566746266
 30
0.0
 10
28.95107179720575
 20
232.1316310702324
 30
0.0
 10
28.95520773862564
 20
228.762695394199
 30
0.0
 10
31.68962255545631
 20
226.0349862633326
 30
0.0
 10
35.05855823148937
 20
226.0391222047525
 30
0.0
 10
38.4216462920836
 20
226.0432509672305
 30
0.0
 10
41.14693833449064
 20
228.7685430096378
 30
0.0
 10
41.15106709696862
 20
232.1316310702324
 30
0.0
  0
SPLINE
  5
8B
330
70
100
AcDbEntity
  8
TopSilkLayer
 62
    18
420
        0
370
     9
100
AcDbSpline
210
0.0
220
0.0
230
1.0
 70
     8
 71
     3
 72
    17
 73
    13
 74
     0
 42
0.0000000001
 43
0.0000000001
 40
0.0
 40
0.0
 40
0.0
 40
0.0
 40
1.0
 40
1.0
 40
1.0
 40
2.0
 40
2.0
 40
2.0
 40
3.0
 40
3.0
 40
3.0
 40
4.0
 40
4.0
 40
4.0
 40
4.0
 10
59.15096808256716
 20
232.1427802562015
 30
0.0
 10
59.14683214114726
 20
235.5117159322346
 30
0.0
 10
56.41241732431692
 20
238.2394250631001
 30
0.0
 10
53.04348164828418
 20
238.2352891216802
 30
0.0
 10
49.6745459722508
 20
238.2311531802599
 30
0.0
 10
46.94683684138374
 20
235.4967383634302
 30
0.0
 10
46.9509727828046
 20
232.1278026873959
 30
0.0
 10
46.9551087242245
 20
228.7588670113622
 30
0.0
 10
49.68952354105549
 20
226.0311578804965
 30
0.0
 10
53.0584592170879
 20
226.035293821916
 30
0.0
 10
56.42154727768311
 20
226.0394225843943
 30
0.0
 10
59.1468393200895
 20
228.7647146268013
 30
0.0
 10
59.15096808256716
 20
232.1278026873959
 30
0.0
  0
SPLINE
  5
8C
330
70
100
AcDbEntity
  8
TopSilkLayer
 62
    18
420
        0
370
     9
100
AcDbSpline
210
0.0
220
0.0
230
1.0
 70
     8
 71
     3
 72
    17
 73
    13
 74
     0
 42
0.0000000001
 43
0.0000000001
 40
0.0
 40
0.0
 40
0.0
 40
0.0
 40
1.0
 40
1.0
 40
1.0
 40
2.0
 40
2.0
 40
2.0
 40
3.0
 40
3.0
 40
3.0
 40
4.0
 40
4.0
 40
4.0
 40
4.0
 10
77.15875685694361
 20
232.152780256199
 30
0.0
 10
77.15462091552372
 20
235.5217159322321
 30
0.0
 10
74.42020609869273
 20
238.2494250630975
 30
0.0
 10
71.05127042266
 20
238.2452891216773
 30
0.0
 10
67.68233474662661
 20
238.2411531802574
 30
0.0
 10
64.95462561575955
 20
235.5067383634274
 30
0.0
 10
64.95876155718073
 20
232.1378026873934
 30
0.0
 10
64.96289749860062
 20
228.7688670113603
 30
0.0
 10
67.69731231543097
 20
226.0411578804939
 30
0.0
 10
71.06624799146435
 20
226.0452938219135
 30
0.0
 10
74.42933605205826
 20
226.0494225843918
 30
0.0
 10
77.15462809446562
 20
228.7747146267988
 30
0.0
 10
77.15875685694361
 20
232.1378026873934
 30
0.0
  0
SPLINE
  5
8D
330
70
100
AcDbEntity
  8
TopSilkLayer
 62
    18
420
        0
370
     9
100
AcDbSpline
210
0.0
220
0.0
230
1.0
 70
     8
 71
     3
 72
    17
 73
    13
 74
     0
 42
0.0000000001
 43
0.0000000001
 40
0.0
 40
0.0
 40
0.0
 40
0.0
 40
1.0
 40
1.0
 40
1.0
 40
2.0
 40
2.0
 40
2.0
 40
3.0
 40
3.0
 40
3.0
 40
4.0
 40
4.0
 40
4.0
 40
4.0
 10
95.15568754551415
 20
232.1508660647809
 30
0.0
 10
95.15155160409426
 20
235.5198017408143
 30
0.0
 10
92.41713678726389
 20
238.2475108716798
 30
0.0
 10
89.04820111123052
 20
238.2433749302599
 30
0.0
 10
85.6792654351965
 20
238.23923898884
 30
0.0
 10
82.95155630433008
 20
235.5048241720096
 30
0.0
 10
82.95569224575126
 20
232.1358884959753
 30
0.0
 10
82.95982818717115
 20
228.7669528199423
 30
0.0
 10
85.6942430040015
 20
226.0392436890752
 30
0.0
 10
89.06317868003489
 20
226.0433796304951
 30
0.0
 10
92.42626674062945
 20
226.0475083929731
 30
0.0
 10
95.15155878303614
 20
228.7728004353804
 30
0.0
 10
95.15568754551415
 20
232.1358884959753
 30
0.0
  0
SPLINE
  5
8E
330
70
100
AcDbEntity
  8
TopSilkLayer
 62
    18
420
        0
370
     9
100
AcDbSpline
210
0.0
220
0.0
230
1.0
 70
     8
 71
     3
 72
    17
 73
    13
 74
     0
 42
0.0000000001
 43
0.0000000001
 40
0.0
 40
0.0
 40
0.0
 40
0.0
 40
1.0
 40
1.0
 40
1.0
 40
2.0
 40
2.0
 40
2.0
 40
3.0
 40
3.0
 40
3.0
 40
4.0
 40
4.0
 40
4.0
 40
4.0
 10
23.16136413116872
 20
214.1454205247265
 30
0.0
 10
23.15722818974882
 20
217.5143562007602
 30
0.0
 10
20.4228133729188
 20
220.2420653316247
 30
0.0
 10
17.05387769688542
 20
220.2379293902048
 30
0.0
 10
13.68494202085172
 20
220.2337934487843
 30
0.0
 10
10.95723288998498
 20
217.4993786319545
 30
0.0
 10
10.96136883140584
 20
214.1304429559208
 30
0.0
 10
10.96550477282573
 20
210.7615072798878
 30
0.0
 10
13.69991958965672
 20
208.0337981490214
 30
0.0
 10
17.06885526568946
 20
208.0379340904419
 30
0.0
 10
20.43194332628466
 20
208.0420628529192
 30
0.0
 10
23.15723536869073
 20
210.7673548953263
 30
0.0
 10
23.16136413116872
 20
214.1304429559208
 30
0.0
  0
SPLINE
  5
8F
330
70
100
AcDbEntity
  8
TopSilkLayer
 62
    18
420
        0
370
     9
100
AcDbSpline
210
0.0
220
0.0
230
1.0
 70
     8
 71
     3
 72
    17
 73
    13
 74
     0
 42
0.0000000001
 43
0.0000000001
 40
0.0
 40
0.0
 40
0.0
 40
0.0
 40
1.0
 40
1.0
 40
1.0
 40
2.0
 40
2.0
 40
2.0
 40
3.0
 40
3.0
 40
3.0
 40
4.0
 40
4.0
 40
4.0
 40
4.0
 10
41.15298128838765
 20
214.1496779504684
 30
0.0
 10
41.14884534696776
 20
217.5186136265018
 30
0.0
 10
38.41443053013774
 20
220.2463227573666
 30
0.0
 10
35.04549485410436
 20
220.2421868159468
 30
0.0
 10
31.67655917807066
 20
220.2380508745262
 30
0.0
 10
28.94885004720361
 20
217.5036360576965
 30
0.0
 10
28.95298598862478
 20
214.1347003816628
 30
0.0
 10
28.95712193004468
 20
210.7657647056297
 30
0.0
 10
31.69153674687566
 20
208.0380555747633
 30
0.0
 10
35.0604724229084
 20
208.0421915161832
 30
0.0
 10
38.42356048350295
 20
208.0463202786612
 30
0.0
 10
41.14885252590967
 20
210.7716123210692
 30
0.0
 10
41.15298128838765
 20
214.1347003816628
 30
0.0
  0
SPLINE
  5
90
330
70
100
AcDbEntity
  8
TopSilkLayer
 62
    18
420
        0
370
     9
100
AcDbSpline
210
0.0
220
0.0
230
1.0
 70
     8
 71
     3
 72
    17
 73
    13
 74
     0
 42
0.0000000001
 43
0.0000000001
 40
0.0
 40
0.0
 40
0.0
 40
0.0
 40
1.0
 40
1.0
 40
1.0
 40
2.0
 40
2.0
 40
2.0
 40
3.0
 40
3.0
 40
3.0
 40
4.0
 40
4.0
 40
4.0
 40
4.0
 10
59.15288227398651
 20
214.1458495676323
 30
0.0
 10
59.14874633256662
 20
217.5147852436657
 30
0.0
 10
56.41433151573563
 20
220.2424943745311
 30
0.0
 10
53.04539583970258
 20
220.2383584331113
 30
0.0
 10
49.67646016366984
 20
220.2342224916907
 30
0.0
 10
46.94875103280278
 20
217.4998076748604
 30
0.0
 10
46.95288697422363
 20
214.1308719988267
 30
0.0
 10
46.95702291564321
 20
210.7619363227936
 30
0.0
 10
49.69143773247484
 20
208.0342271919266
 30
0.0
 10
53.06037340850726
 20
208.0383631333464
 30
0.0
 10
56.42346146910213
 20
208.0424918958244
 30
0.0
 10
59.14875351150917
 20
210.7677839382318
 30
0.0
 10
59.15288227398651
 20
214.1308719988267
 30
0.0
  0
SPLINE
  5
91
330
70
100
AcDbEntity
  8
TopSilkLayer
 62
    18
420
        0
370
     9
100
AcDbSpline
210
0.0
220
0.0
230
1.0
 70
     8
 71
     3
 72
    17
 73
    13
 74
     0
 42
0.0000000001
 43
0.0000000001
 40
0.0
 40
0.0
 40
0.0
 40
0.0
 40
1.0
 40
1.0
 40
1.0
 40
2.0
 40
2.0
 40
2.0
 40
3.0
 40
3.0
 40
3.0
 40
4.0
 40
4.0
 40
4.0
 40
4.0
 10
77.15067104836485
 20
214.1458495676323
 30
0.0
 10
77.14653510694528
 20
217.5147852436657
 30
0.0
 10
74.41212029011397
 20
220.2424943745308
 30
0.0
 10
71.0431846140806
 20
220.2383584331109
 30
0.0
 10
67.67424893804785
 20
220.2342224916907
 30
0.0
 10
64.94653980718016
 20
217.4998076748604
 30
0.0
 10
64.95067574860134
 20
214.1308719988267
 30
0.0
 10
64.95481169002123
 20
210.7619363227936
 30
0.0
 10
67.68922650685286
 20
208.0342271919269
 30
0.0
 10
71.05816218288495
 20
208.0383631333468
 30
0.0
 10
74.42125024348079
 20
208.0424918958244
 30
0.0
 10
77.14654228588752
 20
210.7677839382321
 30
0.0
 10
77.15067104836485
 20
214.1308719988267
 30
0.0
  0
SPLINE
  5
92
330
70
100
AcDbEntity
  8
TopSilkLayer
 62
    18
420
        0
370
     9
100
AcDbSpline
210
0.0
220
0.0
230
1.0
 70
     8
 71
     3
 72
    17
 73
    13
 74
     0
 42
0.0000000001
 43
0.0000000001
 40
0.0
 40
0.0
 40
0.0
 40
0.0
 40
1.0
 40
1.0
 40
1.0
 40
2.0
 40
2.0
 40
2.0
 40
3.0
 40
3.0
 40
3.0
 40
4.0
 40
4.0
 40
4.0
 40
4.0
 10
95.15760173693221
 20
214.1439353762145
 30
0.0
 10
95.15346579551232
 20
217.5128710522473
 30
0.0
 10
92.41905097868196
 20
220.2405801831124
 30
0.0
 10
89.05011530264859
 20
220.2364442416925
 30
0.0
 10
85.68117962661586
 20
220.232308300272
 30
0.0
 10
82.9534704957488
 20
217.4978934834423
 30
0.0
 10
82.95760643716997
 20
214.1289578074089
 30
0.0
 10
82.96174237858988
 20
210.7600221313755
 30
0.0
 10
85.6961571954215
 20
208.0323130005091
 30
0.0
 10
89.06509287145295
 20
208.036448941929
 30
0.0
 10
92.42818093204816
 20
208.040577704407
 30
0.0
 10
95.15347297445519
 20
210.765869746814
 30
0.0
 10
95.15760173693221
 20
214.1289578074089
 30
0.0
  0
CIRCLE
  5
97
330
70
100
AcDbEntity
  8
Multi-Layer
 62
    18
420
        0
370
     9
100
AcDbCircle
 10
6.859033156283964
 20
281.2362636758282
 30
0.0
 40
1.499999999624859
  0
CIRCLE
  5
98
330
70
100
AcDbEntity
  8
Multi-Layer
 62
    18
420
        0
370
     9
100
AcDbCircle
 10
6.8590077562331
 20
203.8363398759805
 30
0.0
 40
1.49999999962526
  0
CIRCLE
  5
99
330
70
100
AcDbEntity
  8
Multi-Layer
 62
    18
420
        0
370
     9
100
AcDbCircle
 10
99.25898235618149
 20
281.2362636758282
 30
0.0
 40
1.499999999624538
  0
CIRCLE
  5
9A
330
70
100
AcDbEntity
  8
Multi-Layer
 62
    18
420
        0
370
     9
100
AcDbCircle
 10
99.25908395638479
 20
203.8364414761834
 30
0.0
 40
1.499999999624739
  0
LWPOLYLINE
  5
9B
330
70
100
AcDbEntity
  8
Multi-Layer
 62
    18
420
        0
370
     9
100
AcDbPolyline
 90
       56
 70
     1
 43
0.0
 10
99.88857690765044
 20
107.8575829094241
 10
7.893275917048513
 20
107.8575829094241
 10
7.21336735723144
 20
107.8656601255789
 10
6.730283791064268
 20
107.928906252071
 10
6.267926666349812
 20
108.0514360971308
 10
5.830258391013613
 20
108.2292364527317
 10
5.42134297318274
 20
108.4581671105926
 10
5.045193620883981
 20
108.7343164628914
 10
4.706102942702588
 20
109.0534173010923
 10
4.407957146410945
 20
109.4114818172215
 10
4.154947240391167
 20
109.8045222033025
 10
3.951035632567831
 20
110.2282966508519
 10
3.800362531221804
 20
110.6788681519939
 10
3.706966544429535
 20
111.1521472985532
 10
3.674962480421588
 20
111.6439684821956
 10
3.674962480421588
 20
188.7093736130177
 10
3.683039696576088
 20
189.319127232525
 10
3.746285823068457
 20
189.8022107986922
 10
3.868815668127976
 20
190.2646187235079
 10
4.04666682383039
 20
190.7023123988953
 10
4.27562288174264
 20
191.1112024166753
 10
4.551696033888561
 20
191.4872501687709
 10
4.87079687209046
 20
191.8263916470538
 10
5.228861388219018
 20
192.1244866432436
 10
5.621901774299999
 20
192.3775473493656
 10
6.045676221849076
 20
192.5814589571883
 10
6.496273123043242
 20
192.7321320585343
 10
6.969526869550363
 20
192.8255280453269
 10
7.461424253345257
 20
192.8575321093345
 10
99.45672524394687
 20
192.8575321093345
 10
100.1365068035108
 20
192.849480293231
 10
100.619564969627
 20
192.7862087666877
 10
101.0820490945933
 20
192.6636789216281
 10
101.5197427699795
 20
192.4859039660782
 10
101.9286327877575
 20
192.2569479081666
 10
102.3046805398515
 20
191.9807985558679
 10
102.6437712180322
 20
191.6616977176663
 10
102.9419170143233
 20
191.3036332015371
 10
103.1949269203408
 20
190.910618215507
 10
103.3988131281132
 20
190.4868183679074
 10
103.5495116295111
 20
190.0362468667641
 10
103.6429076163021
 20
189.5629677202061
 10
103.6750132805122
 20
189.0711465365633
 10
103.6668344641546
 20
111.395987786234
 10
103.6035883376635
 20
110.9129042200671
 10
103.4811600928065
 20
110.4504962952511
 10
103.3033089371057
 20
110.0128026198636
 10
103.0743782792453
 20
109.6039126020837
 10
102.7981781268453
 20
109.2278648499877
 10
102.4790518885934
 20
108.8887233717045
 10
102.1210127725177
 20
108.5906283755154
 10
101.7279723864381
 20
108.337567669393
 10
101.304172538839
 20
108.13365606157
 10
100.8536010376974
 20
107.982982960224
 10
100.380448891395
 20
107.889586973432
 10
99.88857690765044
 20
107.8575829094241
  0
SPLINE
  5
9C
330
70
100
AcDbEntity
  8
Multi-Layer
 62
    18
420
        0
370
     9
100
AcDbSpline
210
0.0
220
0.0
230
1.0
 70
     8
 71
     3
 72
    17
 73
    13
 74
     0
 42
0.0000000001
 43
0.0000000001
 40
0.0
 40
0.0
 40
0.0
 40
0.0
 40
1.0
 40
1.0
 40
1.0
 40
2.0
 40
2.0
 40
2.0
 40
3.0
 40
3.0
 40
3.0
 40
4.0
 40
4.0
 40
4.0
 40
4.0
 10
93.83271060071562
 20
178.8636387065324
 30
0.0
 10
93.83023581609553
 20
180.8794772667809
 30
0.0
 10
92.19406957323794
 20
182.5116310909879
 30
0.0
 10
90.17823101298871
 20
182.5091563063678
 30
0.0
 10
88.16239245273882
 20
182.5066815217474
 30
0.0
 10
86.53023862853222
 20
180.8705152788898
 30
0.0
 10
86.53271341315232
 20
178.8546767186402
 30
0.0
 10
86.53518819777241
 20
176.8388381583907
 30
0.0
 10
88.17135444063129
 20
175.2066843341844
 30
0.0
 10
90.18719300087989
 20
175.2091591188038
 30
0.0
 10
92.19953257812191
 20
175.2116296078277
 30
0.0
 10
93.83024011169242
 20
176.8423371413992
 30
0.0
 10
93.83271060071562
 20
178.8546767186402
 30
0.0
  0
SPLINE
  5
9D
330
70
100
AcDbEntity
  8
Multi-Layer
 62
    18
420
        0
370
     9
100
AcDbSpline
210
0.0
220
0.0
230
1.0
 70
     8
 71
     3
 72
    17
 73
    13
 74
     0
 42
0.0000000001
 43
0.0000000001
 40
0.0
 40
0.0
 40
0.0
 40
0.0
 40
1.0
 40
1.0
 40
1.0
 40
2.0
 40
2.0
 40
2.0
 40
3.0
 40
3.0
 40
3.0
 40
4.0
 40
4.0
 40
4.0
 40
4.0
 10
20.83177079883709
 20
178.8636387065308
 30
0.0
 10
20.82929601421699
 20
180.8794772667806
 30
0.0
 10
19.1931297713594
 20
182.5116310909869
 30
0.0
 10
17.17729121111016
 20
182.5091563063671
 30
0.0
 10
15.1614526508606
 20
182.5066815217467
 30
0.0
 10
13.52929882665303
 20
180.8705152788892
 30
0.0
 10
13.53177361127409
 20
178.8546767186399
 30
0.0
 10
13.53424839589419
 20
176.8388381583897
 30
0.0
 10
15.1704146387521
 20
175.2066843341828
 30
0.0
 10
17.18625319900134
 20
175.2091591188035
 30
0.0
 10
19.19859277624209
 20
175.2116296078267
 30
0.0
 10
20.82930030981324
 20
176.8423371413982
 30
0.0
 10
20.83177079883709
 20
178.8546767186399
 30
0.0
  0
CIRCLE
  5
9E
330
70
100
AcDbEntity
  8
Multi-Layer
 62
    18
420
        0
370
     9
100
AcDbCircle
 10
53.72799778649214
 20
160.0146314235334
 30
0.0
 40
2.999999999249799
  0
SPLINE
  5
9F
330
70
100
AcDbEntity
  8
Multi-Layer
 62
    18
420
        0
370
     9
100
AcDbSpline
210
0.0
220
0.0
230
1.0
 70
     8
 71
     3
 72
    17
 73
    13
 74
     0
 42
0.0000000001
 43
0.0000000001
 40
0.0
 40
0.0
 40
0.0
 40
0.0
 40
1.0
 40
1.0
 40
1.0
 40
2.0
 40
2.0
 40
2.0
 40
3.0
 40
3.0
 40
3.0
 40
4.0
 40
4.0
 40
4.0
 40
4.0
 10
23.78289767892405
 20
139.9791060577604
 30
0.0
 10
23.77876173750415
 20
143.3480417337937
 30
0.0
 10
21.04434692067445
 20
146.0757508646646
 30
0.0
 10
17.67541124464107
 20
146.0716149232447
 30
0.0
 10
14.30647556860641
 20
146.0674789818242
 30
0.0
 10
11.57876643773999
 20
143.3330641649887
 30
0.0
 10
11.58290237916085
 20
139.9641284889553
 30
0.0
 10
11.58703832058074
 20
136.595192812922
 30
0.0
 10
14.32145313741205
 20
133.8674836820549
 30
0.0
 10
17.69038881344447
 20
133.8716196234748
 30
0.0
 10
21.05347687403967
 20
133.8757483859528
 30
0.0
 10
23.77876891644606
 20
136.6010404283608
 30
0.0
 10
23.78289767892405
 20
139.9641284889553
 30
0.0
  0
SPLINE
  5
A0
330
70
100
AcDbEntity
  8
Multi-Layer
 62
    18
420
        0
370
     9
100
AcDbSpline
210
0.0
220
0.0
230
1.0
 70
     8
 71
     3
 72
    17
 73
    13
 74
     0
 42
0.0000000001
 43
0.0000000001
 40
0.0
 40
0.0
 40
0.0
 40
0.0
 40
1.0
 40
1.0
 40
1.0
 40
2.0
 40
2.0
 40
2.0
 40
3.0
 40
3.0
 40
3.0
 40
4.0
 40
4.0
 40
4.0
 40
4.0
 10
41.77451483614267
 20
139.9733634835048
 30
0.0
 10
41.77037889472341
 20
143.3422991595376
 30
0.0
 10
39.03596407789307
 20
146.0700082904085
 30
0.0
 10
35.66702840185969
 20
146.065872348988
 30
0.0
 10
32.29809272582567
 20
146.0617364075681
 30
0.0
 10
29.57038359495926
 20
143.3273215907332
 30
0.0
 10
29.57451953638011
 20
139.9583859146992
 30
0.0
 10
29.57865547780001
 20
136.5894502386658
 30
0.0
 10
32.31307029463068
 20
133.8617411077994
 30
0.0
 10
35.68200597066373
 20
133.8658770492193
 30
0.0
 10
39.04509403125797
 20
133.870005811698
 30
0.0
 10
41.770386073665
 20
136.5952978541046
 30
0.0
 10
41.77451483614267
 20
139.9583859146992
 30
0.0
  0
SPLINE
  5
A1
330
70
100
AcDbEntity
  8
Multi-Layer
 62
    18
420
        0
370
     9
100
AcDbSpline
210
0.0
220
0.0
230
1.0
 70
     8
 71
     3
 72
    17
 73
    13
 74
     0
 42
0.0000000001
 43
0.0000000001
 40
0.0
 40
0.0
 40
0.0
 40
0.0
 40
1.0
 40
1.0
 40
1.0
 40
2.0
 40
2.0
 40
2.0
 40
3.0
 40
3.0
 40
3.0
 40
4.0
 40
4.0
 40
4.0
 40
4.0
 10
59.77441582174153
 20
139.9695351006687
 30
0.0
 10
59.77027988032163
 20
143.3384707767014
 30
0.0
 10
57.03586506349129
 20
146.0661799075723
 30
0.0
 10
53.66692938745855
 20
146.0620439661525
 30
0.0
 10
50.29799371142517
 20
146.0579080247319
 30
0.0
 10
47.57028458055811
 20
143.3234932078971
 30
0.0
 10
47.57442052197897
 20
139.9545575318631
 30
0.0
 10
47.57855646339886
 20
136.5856218558297
 30
0.0
 10
50.31297128022985
 20
133.8579127249633
 30
0.0
 10
53.68190695626227
 20
133.8620486663832
 30
0.0
 10
57.04499501685746
 20
133.8661774288618
 30
0.0
 10
59.77028705926354
 20
136.5914694712685
 30
0.0
 10
59.77441582174153
 20
139.9545575318631
 30
0.0
  0
SPLINE
  5
A2
330
70
100
AcDbEntity
  8
Multi-Layer
 62
    18
420
        0
370
     9
100
AcDbSpline
210
0.0
220
0.0
230
1.0
 70
     8
 71
     3
 72
    17
 73
    13
 74
     0
 42
0.0000000001
 43
0.0000000001
 40
0.0
 40
0.0
 40
0.0
 40
0.0
 40
1.0
 40
1.0
 40
1.0
 40
2.0
 40
2.0
 40
2.0
 40
3.0
 40
3.0
 40
3.0
 40
4.0
 40
4.0
 40
4.0
 40
4.0
 10
77.78220459611798
 20
139.9795351006662
 30
0.0
 10
77.77806865469807
 20
143.3484707766989
 30
0.0
 10
75.04365383786709
 20
146.0761799075705
 30
0.0
 10
71.67471816183436
 20
146.0720439661499
 30
0.0
 10
68.30578248580097
 20
146.06790802473
 30
0.0
 10
65.57807335493392
 20
143.3334932078945
 30
0.0
 10
65.5822092963551
 20
139.9645575318605
 30
0.0
 10
65.58634523777499
 20
136.5956218558272
 30
0.0
 10
68.32076005460534
 20
133.8679127249607
 30
0.0
 10
71.68969573063904
 20
133.8720486663806
 30
0.0
 10
75.05278379123263
 20
133.8761774288593
 30
0.0
 10
77.77807583363999
 20
136.601469471266
 30
0.0
 10
77.78220459611798
 20
139.9645575318605
 30
0.0
  0
SPLINE
  5
A3
330
70
100
AcDbEntity
  8
Multi-Layer
 62
    18
420
        0
370
     9
100
AcDbSpline
210
0.0
220
0.0
230
1.0
 70
     8
 71
     3
 72
    17
 73
    13
 74
     0
 42
0.0000000001
 43
0.0000000001
 40
0.0
 40
0.0
 40
0.0
 40
0.0
 40
1.0
 40
1.0
 40
1.0
 40
2.0
 40
2.0
 40
2.0
 40
3.0
 40
3.0
 40
3.0
 40
4.0
 40
4.0
 40
4.0
 40
4.0
 10
95.77913528468851
 20
139.9776209092481
 30
0.0
 10
95.7749993432686
 20
143.3465565852815
 30
0.0
 10
93.04058452643827
 20
146.0742657161524
 30
0.0
 10
89.67164885040489
 20
146.0701297747325
 30
0.0
 10
86.30271317437086
 20
146.065993833312
 30
0.0
 10
83.57500404350444
 20
143.3315790164765
 30
0.0
 10
83.57913998492563
 20
139.9626433404425
 30
0.0
 10
83.58327592634552
 20
136.5937076644097
 30
0.0
 10
86.31769074317586
 20
133.865998533542
 30
0.0
 10
89.68662641920925
 20
133.8701344749619
 30
0.0
 10
93.0497144798038
 20
133.8742632374406
 30
0.0
 10
95.77500652221052
 20
136.5995552798473
 30
0.0
 10
95.77913528468851
 20
139.9626433404425
 30
0.0
  0
SPLINE
  5
A4
330
70
100
AcDbEntity
  8
Multi-Layer
 62
    18
420
        0
370
     9
100
AcDbSpline
210
0.0
220
0.0
230
1.0
 70
     8
 71
     3
 72
    17
 73
    13
 74
     0
 42
0.0000000001
 43
0.0000000001
 40
0.0
 40
0.0
 40
0.0
 40
0.0
 40
1.0
 40
1.0
 40
1.0
 40
2.0
 40
2.0
 40
2.0
 40
3.0
 40
3.0
 40
3.0
 40
4.0
 40
4.0
 40
4.0
 40
4.0
 10
23.78481187034308
 20
121.9721753691936
 30
0.0
 10
23.78067592892319
 20
125.341111045227
 30
0.0
 10
21.04626111209316
 20
128.0688201760922
 30
0.0
 10
17.67732543605978
 20
128.0646842346722
 30
0.0
 10
14.30838976002608
 20
128.0605482932511
 30
0.0
 10
11.58068062915935
 20
125.326133476422
 30
0.0
 10
11.5848165705802
 20
121.957197800388
 30
0.0
 10
11.5889525120001
 20
118.5882621243546
 30
0.0
 10
14.32336732883109
 20
115.8605529934882
 30
0.0
 10
17.69230300486382
 20
115.8646889349087
 30
0.0
 10
21.05539106545902
 20
115.8688176973861
 30
0.0
 10
23.7806831078651
 20
118.5941097397934
 30
0.0
 10
23.78481187034308
 20
121.957197800388
 30
0.0
  0
SPLINE
  5
A5
330
70
100
AcDbEntity
  8
Multi-Layer
 62
    18
420
        0
370
     9
100
AcDbSpline
210
0.0
220
0.0
230
1.0
 70
     8
 71
     3
 72
    17
 73
    13
 74
     0
 42
0.0000000001
 43
0.0000000001
 40
0.0
 40
0.0
 40
0.0
 40
0.0
 40
1.0
 40
1.0
 40
1.0
 40
2.0
 40
2.0
 40
2.0
 40
3.0
 40
3.0
 40
3.0
 40
4.0
 40
4.0
 40
4.0
 40
4.0
 10
41.77642902756202
 20
121.9764327949356
 30
0.0
 10
41.77229308614212
 20
125.3453684709683
 30
0.0
 10
39.0378782693121
 20
128.0730776018335
 30
0.0
 10
35.66894259327872
 20
128.0689416604136
 30
0.0
 10
32.30000691724503
 20
128.0648057189937
 30
0.0
 10
29.57229778637797
 20
125.3303909021634
 30
0.0
 10
29.57643372779914
 20
121.96145522613
 30
0.0
 10
29.58056966921904
 20
118.5925195500972
 30
0.0
 10
32.31498448605003
 20
115.8648104192308
 30
0.0
 10
35.68392016208277
 20
115.8689463606507
 30
0.0
 10
39.04700822267732
 20
115.873075123128
 30
0.0
 10
41.77230026508403
 20
118.598367165536
 30
0.0
 10
41.77642902756202
 20
121.96145522613
 30
0.0
  0
SPLINE
  5
A6
330
70
100
AcDbEntity
  8
Multi-Layer
 62
    18
420
        0
370
     9
100
AcDbSpline
210
0.0
220
0.0
230
1.0
 70
     8
 71
     3
 72
    17
 73
    13
 74
     0
 42
0.0000000001
 43
0.0000000001
 40
0.0
 40
0.0
 40
0.0
 40
0.0
 40
1.0
 40
1.0
 40
1.0
 40
2.0
 40
2.0
 40
2.0
 40
3.0
 40
3.0
 40
3.0
 40
4.0
 40
4.0
 40
4.0
 40
4.0
 10
59.7763300131612
 20
121.9726044120995
 30
0.0
 10
59.77219407174098
 20
125.3415400881328
 30
0.0
 10
57.03777925491031
 20
128.0692492189986
 30
0.0
 10
53.66884357887694
 20
128.0651132775787
 30
0.0
 10
50.2999079028442
 20
128.0609773361575
 30
0.0
 10
47.57219877197682
 20
125.3265625193272
 30
0.0
 10
47.57633471339768
 20
121.9576268432938
 30
0.0
 10
47.58047065481757
 20
118.5886911672611
 30
0.0
 10
50.31488547164888
 20
115.8609820363934
 30
0.0
 10
53.68382114768162
 20
115.8651179778133
 30
0.0
 10
57.04690920827649
 20
115.8692467402919
 30
0.0
 10
59.77220125068353
 20
118.5945387826986
 30
0.0
 10
59.7763300131612
 20
121.9576268432938
 30
0.0
  0
SPLINE
  5
A7
330
70
100
AcDbEntity
  8
Multi-Layer
 62
    18
420
        0
370
     9
100
AcDbSpline
210
0.0
220
0.0
230
1.0
 70
     8
 71
     3
 72
    17
 73
    13
 74
     0
 42
0.0000000001
 43
0.0000000001
 40
0.0
 40
0.0
 40
0.0
 40
0.0
 40
1.0
 40
1.0
 40
1.0
 40
2.0
 40
2.0
 40
2.0
 40
3.0
 40
3.0
 40
3.0
 40
4.0
 40
4.0
 40
4.0
 40
4.0
 10
77.77411878753922
 20
121.9726044120995
 30
0.0
 10
77.76998284611933
 20
125.3415400881328
 30
0.0
 10
75.03556802928834
 20
128.069249218998
 30
0.0
 10
71.66663235325495
 20
128.0651132775781
 30
0.0
 10
68.29769667722222
 20
128.0609773361575
 30
0.0
 10
65.56998754635452
 20
125.3265625193272
 30
0.0
 10
65.57412348777571
 20
121.9576268432938
 30
0.0
 10
65.5782594291956
 20
118.5886911672611
 30
0.0
 10
68.31267424602723
 20
115.860982036394
 30
0.0
 10
71.68160992205965
 20
115.8651179778139
 30
0.0
 10
75.04469798265517
 20
115.8692467402919
 30
0.0
 10
77.76999002506187
 20
118.5945387826993
 30
0.0
 10
77.77411878753922
 20
121.9576268432938
 30
0.0
  0
SPLINE
  5
A8
330
70
100
AcDbEntity
  8
Multi-Layer
 62
    18
420
        0
370
     9
100
AcDbSpline
210
0.0
220
0.0
230
1.0
 70
     8
 71
     3
 72
    17
 73
    13
 74
     0
 42
0.0000000001
 43
0.0000000001
 40
0.0
 40
0.0
 40
0.0
 40
0.0
 40
1.0
 40
1.0
 40
1.0
 40
2.0
 40
2.0
 40
2.0
 40
3.0
 40
3.0
 40
3.0
 40
4.0
 40
4.0
 40
4.0
 40
4.0
 10
95.78104947610658
 20
121.9706902206814
 30
0.0
 10
95.77691353468669
 20
125.3396258967148
 30
0.0
 10
93.04249871785634
 20
128.0673350275799
 30
0.0
 10
89.67356304182295
 20
128.06319908616
 30
0.0
 10
86.30462736579023
 20
128.0590631447388
 30
0.0
 10
83.57691823492315
 20
125.3246483279098
 30
0.0
 10
83.58105417634433
 20
121.9557126518758
 30
0.0
 10
83.58519011776422
 20
118.5867769758424
 30
0.0
 10
86.31960493459585
 20
115.859067844976
 30
0.0
 10
89.68854061062732
 20
115.8632037863959
 30
0.0
 10
93.05162867122252
 20
115.8673325488745
 30
0.0
 10
95.77692071362923
 20
118.5926245912812
 30
0.0
 10
95.78104947610658
 20
121.9557126518758
 30
0.0
  0
CIRCLE
  5
A9
330
70
100
AcDbEntity
  8
Multi-Layer
 62
    18
420
        0
370
     9
100
AcDbCircle
 10
7.482480895458328
 20
189.0630185203075
 30
0.0
 40
1.499999999624859
  0
CIRCLE
  5
AA
330
70
100
AcDbEntity
  8
Multi-Layer
 62
    18
420
        0
370
     9
100
AcDbCircle
 10
7.482455495407464
 20
111.6630947204478
 30
0.0
 40
1.499999999625019
  0
CIRCLE
  5
AB
330
70
100
AcDbEntity
  8
Multi-Layer
 62
    18
420
        0
370
     9
100
AcDbCircle
 10
99.88243009535601
 20
189.0630185203075
 30
0.0
 40
1.499999999624618
  0
CIRCLE
  5
AC
330
70
100
AcDbEntity
  8
Multi-Layer
 62
    18
420
        0
370
     9
100
AcDbCircle
 10
99.88253169555923
 20
111.6631963206503
 30
0.0
 40
1.499999999624779
  0
LWPOLYLINE
  5
AD
330
70
100
AcDbEntity
  8
Multi-Layer
 62
    18
420
        0
370
     9
100
AcDbPolyline
 90
       56
 70
     1
 43
0.0
 10
203.7937961538556
 20
107.8461701317751
 10
111.7984951632539
 20
107.8461701317751
 10
111.1185866034372
 20
107.8542473479305
 10
110.6355030372697
 20
107.9174934744219
 10
110.1731459125549
 20
108.0400233194818
 10
109.735477637219
 20
108.2178236750826
 10
109.3265622193882
 20
108.4467543329436
 10
108.9504128670891
 20
108.7229036852424
 10
108.6113221889077
 20
109.0420045234433
 10
108.3131763926167
 20
109.4000690395725
 10
108.0601664865963
 20
109.7931094256535
 10
107.8562548787733
 20
110.2168838732029
 10
107.7055817774272
 20
110.6674553743448
 10
107.6121857906353
 20
111.1407345209042
 10
107.5801817266273
 20
111.6325557045465
 10
107.5801817266273
 20
188.6979608353754
 10
107.5882589427815
 20
189.3077144548827
 10
107.6515050692742
 20
189.7907980210499
 10
107.7740349143334
 20
190.2532059458655
 10
107.9518860700355
 20
190.6908996212534
 10
108.1808421279481
 20
191.0997896390329
 10
108.456915280094
 20
191.4758373911286
 10
108.7760161182956
 20
191.8149788694112
 10
109.1340806344248
 20
192.1130738656013
 10
109.5271210205057
 20
192.3661345717233
 10
109.9508954680545
 20
192.5700461795459
 10
110.4014923692487
 20
192.7207192808923
 10
110.8747461157558
 20
192.8141152676843
 10
111.3666434995504
 20
192.8461193316922
 10
203.361944490152
 20
192.8461193316922
 10
204.0417260497153
 20
192.8380675155887
 10
204.5247842158318
 20
192.7747959890453
 10
204.9872683407988
 20
192.6522661439858
 10
205.424962016185
 20
192.4744911884359
 10
205.833852033963
 20
192.2455351305243
 10
206.209899786057
 20
191.9693857782256
 10
206.5489904642371
 20
191.650284940024
 10
206.8471362605287
 20
191.2922204238945
 10
207.1001461665472
 20
190.8992054378647
 10
207.304032374318
 20
190.4754055902651
 10
207.4547308757163
 20
190.0248340891218
 10
207.5481268625082
 20
189.5515549425637
 10
207.580232526718
 20
189.0597337589207
 10
207.5720537103601
 20
111.3845750085849
 10
207.5088075838693
 20
110.9014914424187
 10
207.386379339012
 20
110.439083517602
 10
207.2085281833111
 20
110.0013898422146
 10
206.9795975254508
 20
109.5924998244353
 10
206.7033973730514
 20
109.2164520723387
 10
206.3842711347989
 20
108.8773105940554
 10
206.0262320187232
 20
108.5792155978663
 10
205.6331916326435
 20
108.326154891744
 10
205.2093917850445
 20
108.122243283921
 10
204.7588202839025
 20
107.9715701825749
 10
204.2856681375998
 20
107.878174195783
 10
203.7937961538556
 20
107.8461701317751
  0
SPLINE
  5
AE
330
70
100
AcDbEntity
  8
Multi-Layer
 62
    18
420
        0
370
     9
100
AcDbSpline
210
0.0
220
0.0
230
1.0
 70
     8
 71
     3
 72
    17
 73
    13
 74
     0
 42
0.0000000001
 43
0.0000000001
 40
0.0
 40
0.0
 40
0.0
 40
0.0
 40
1.0
 40
1.0
 40
1.0
 40
2.0
 40
2.0
 40
2.0
 40
3.0
 40
3.0
 40
3.0
 40
4.0
 40
4.0
 40
4.0
 40
4.0
 10
153.93759743666
 20
178.8508839562383
 30
0.0
 10
153.9400722212801
 20
176.8350453959888
 30
0.0
 10
155.5762384641383
 20
175.2028915717815
 30
0.0
 10
157.5920770243875
 20
175.2053663564019
 30
0.0
 10
159.6079155846368
 20
175.2078411410217
 30
0.0
 10
161.240069408844
 20
176.8440073838796
 30
0.0
 10
161.2375946242239
 20
178.8598459441285
 30
0.0
 10
161.2351198396038
 20
180.8756845043791
 30
0.0
 10
159.5989535967462
 20
182.5078383285853
 30
0.0
 10
157.5831150364957
 20
182.5053635439649
 30
0.0
 10
155.5707754592556
 20
182.502893054942
 30
0.0
 10
153.9400679256845
 20
180.8721855213699
 30
0.0
 10
153.93759743666
 20
178.8598459441292
 30
0.0
  0
SPLINE
  5
AF
330
70
100
AcDbEntity
  8
Multi-Layer
 62
    18
420
        0
370
     9
100
AcDbSpline
210
0.0
220
0.0
230
1.0
 70
     8
 71
     3
 72
    17
 73
    13
 74
     0
 42
0.0000000001
 43
0.0000000001
 40
0.0
 40
0.0
 40
0.0
 40
0.0
 40
1.0
 40
1.0
 40
1.0
 40
2.0
 40
2.0
 40
2.0
 40
3.0
 40
3.0
 40
3.0
 40
4.0
 40
4.0
 40
4.0
 40
4.0
 10
135.4365814346282
 20
164.2508839562375
 30
0.0
 10
135.4390562192484
 20
162.2350453959889
 30
0.0
 10
137.0752224621059
 20
160.6028915717816
 30
0.0
 10
139.0910610223558
 20
160.6053663564017
 30
0.0
 10
141.1068995826051
 20
160.6078411410218
 30
0.0
 10
142.7390534068117
 20
162.2440073838794
 30
0.0
 10
142.7365786221916
 20
164.2598459441299
 30
0.0
 10
142.7341038375715
 20
166.2756845043785
 30
0.0
 10
141.0979375947139
 20
167.9078383285852
 30
0.0
 10
139.0820990344646
 20
167.905363543965
 30
0.0
 10
137.0697594572233
 20
167.9028930549412
 30
0.0
 10
135.4390519236521
 20
166.27218552137
 30
0.0
 10
135.4365814346282
 20
164.2598459441299
 30
0.0
  0
SPLINE
  5
B0
330
70
100
AcDbEntity
  8
Multi-Layer
 62
    18
420
        0
370
     9
100
AcDbSpline
210
0.0
220
0.0
230
1.0
 70
     8
 71
     3
 72
    17
 73
    13
 74
     0
 42
0.0000000001
 43
0.0000000001
 40
0.0
 40
0.0
 40
0.0
 40
0.0
 40
1.0
 40
1.0
 40
1.0
 40
2.0
 40
2.0
 40
2.0
 40
3.0
 40
3.0
 40
3.0
 40
4.0
 40
4.0
 40
4.0
 40
4.0
 10
124.7369900450428
 20
178.8522259288888
 30
0.0
 10
124.7345152604227
 20
180.868064489138
 30
0.0
 10
123.0983490175652
 20
182.5002183133453
 30
0.0
 10
121.0825104573159
 20
182.4977435287252
 30
0.0
 10
119.066671897066
 20
182.4952687441038
 30
0.0
 10
117.4345180728581
 20
180.8591025012472
 30
0.0
 10
117.4369928574795
 20
178.8432639409976
 30
0.0
 10
117.4394676420996
 20
176.8274253807477
 30
0.0
 10
119.0756338849572
 20
175.1952715565405
 30
0.0
 10
121.0914724452065
 20
175.1977463411606
 30
0.0
 10
123.1038120224478
 20
175.2002168301844
 30
0.0
 10
124.734519556019
 20
176.8309243637556
 30
0.0
 10
124.7369900450428
 20
178.8432639409976
 30
0.0
  0
CIRCLE
  5
B1
330
70
100
AcDbEntity
  8
Multi-Layer
 62
    18
420
        0
370
     9
100
AcDbCircle
 10
157.6332170326972
 20
160.0032186458913
 30
0.0
 40
2.999999999249678
  0
SPLINE
  5
B2
330
70
100
AcDbEntity
  8
Multi-Layer
 62
    18
420
        0
370
     9
100
AcDbSpline
210
0.0
220
0.0
230
1.0
 70
     8
 71
     3
 72
    17
 73
    13
 74
     0
 42
0.0000000001
 43
0.0000000001
 40
0.0
 40
0.0
 40
0.0
 40
0.0
 40
1.0
 40
1.0
 40
1.0
 40
2.0
 40
2.0
 40
2.0
 40
3.0
 40
3.0
 40
3.0
 40
4.0
 40
4.0
 40
4.0
 40
4.0
 10
127.6881169251295
 20
139.967693280112
 30
0.0
 10
127.6839809837096
 20
143.3366289561472
 30
0.0
 10
124.9495661668799
 20
146.0643380870227
 30
0.0
 10
121.5806304908465
 20
146.0602021456021
 30
0.0
 10
118.2116948148118
 20
146.0560662041816
 30
0.0
 10
115.4839856839454
 20
143.3216513873429
 30
0.0
 10
115.4881216253666
 20
139.9527157113057
 30
0.0
 10
115.4922575667865
 20
136.5837800352723
 30
0.0
 10
118.2266723836175
 20
133.8560709044059
 30
0.0
 10
121.5956080596502
 20
133.8602068458258
 30
0.0
 10
124.9586961202448
 20
133.8643356083044
 30
0.0
 10
127.6839881626515
 20
136.5896276507111
 30
0.0
 10
127.6881169251295
 20
139.9527157113057
 30
0.0
  0
SPLINE
  5
B3
330
70
100
AcDbEntity
  8
Multi-Layer
 62
    18
420
        0
370
     9
100
AcDbSpline
210
0.0
220
0.0
230
1.0
 70
     8
 71
     3
 72
    17
 73
    13
 74
     0
 42
0.0000000001
 43
0.0000000001
 40
0.0
 40
0.0
 40
0.0
 40
0.0
 40
1.0
 40
1.0
 40
1.0
 40
2.0
 40
2.0
 40
2.0
 40
3.0
 40
3.0
 40
3.0
 40
4.0
 40
4.0
 40
4.0
 40
4.0
 10
145.6797340823484
 20
139.9619507058558
 30
0.0
 10
145.6755981409285
 20
143.3308863818924
 30
0.0
 10
142.9411833240982
 20
146.0585955127665
 30
0.0
 10
139.5722476480648
 20
146.0544595713466
 30
0.0
 10
136.2033119720314
 20
146.0503236299254
 30
0.0
 10
133.475602841165
 20
143.3159088130874
 30
0.0
 10
133.4797387825855
 20
139.9469731370508
 30
0.0
 10
133.4838747240054
 20
136.5780374610174
 30
0.0
 10
136.2182895408364
 20
133.850328330151
 30
0.0
 10
139.5872252168691
 20
133.8544642715709
 30
0.0
 10
142.9503132774631
 20
133.8585930340483
 30
0.0
 10
145.6756053198704
 20
136.5838850764563
 30
0.0
 10
145.6797340823484
 20
139.9469731370508
 30
0.0
  0
SPLINE
  5
B4
330
70
100
AcDbEntity
  8
Multi-Layer
 62
    18
420
        0
370
     9
100
AcDbSpline
210
0.0
220
0.0
230
1.0
 70
     8
 71
     3
 72
    17
 73
    13
 74
     0
 42
0.0000000001
 43
0.0000000001
 40
0.0
 40
0.0
 40
0.0
 40
0.0
 40
1.0
 40
1.0
 40
1.0
 40
2.0
 40
2.0
 40
2.0
 40
3.0
 40
3.0
 40
3.0
 40
4.0
 40
4.0
 40
4.0
 40
4.0
 10
163.6796350679473
 20
139.9581223230197
 30
0.0
 10
163.6754991265274
 20
143.3270579990562
 30
0.0
 10
160.941084309697
 20
146.0547671299304
 30
0.0
 10
157.5721486336637
 20
146.0506311885105
 30
0.0
 10
154.2032129576303
 20
146.0464952470906
 30
0.0
 10
151.4755038267639
 20
143.3120804302513
 30
0.0
 10
151.4796397681844
 20
139.9431447542147
 30
0.0
 10
151.4837757096043
 20
136.57420907818
 30
0.0
 10
154.2181905264353
 20
133.8464999473149
 30
0.0
 10
157.5871262024674
 20
133.8506358887348
 30
0.0
 10
160.9502142630632
 20
133.8547646512121
 30
0.0
 10
163.6755063054686
 20
136.5800566936201
 30
0.0
 10
163.6796350679473
 20
139.9431447542147
 30
0.0
  0
SPLINE
  5
B5
330
70
100
AcDbEntity
  8
Multi-Layer
 62
    18
420
        0
370
     9
100
AcDbSpline
210
0.0
220
0.0
230
1.0
 70
     8
 71
     3
 72
    17
 73
    13
 74
     0
 42
0.0000000001
 43
0.0000000001
 40
0.0
 40
0.0
 40
0.0
 40
0.0
 40
1.0
 40
1.0
 40
1.0
 40
2.0
 40
2.0
 40
2.0
 40
3.0
 40
3.0
 40
3.0
 40
4.0
 40
4.0
 40
4.0
 40
4.0
 10
181.6874238423231
 20
139.9681223230171
 30
0.0
 10
181.6832879009032
 20
143.3370579990537
 30
0.0
 10
178.9488730840728
 20
146.0647671299279
 30
0.0
 10
175.5799374080394
 20
146.060631188508
 30
0.0
 10
172.2110017320061
 20
146.0564952470874
 30
0.0
 10
169.4832926011397
 20
143.3220804302487
 30
0.0
 10
169.4874285425609
 20
139.9531447542121
 30
0.0
 10
169.4915644839807
 20
136.5842090781788
 30
0.0
 10
172.2259793008111
 20
133.8564999473123
 30
0.0
 10
175.5949149768444
 20
133.8606358887322
 30
0.0
 10
178.9580030374377
 20
133.8647646512096
 30
0.0
 10
181.6832950798457
 20
136.5900566936176
 30
0.0
 10
181.6874238423231
 20
139.9531447542121
 30
0.0
  0
SPLINE
  5
B6
330
70
100
AcDbEntity
  8
Multi-Layer
 62
    18
420
        0
370
     9
100
AcDbSpline
210
0.0
220
0.0
230
1.0
 70
     8
 71
     3
 72
    17
 73
    13
 74
     0
 42
0.0000000001
 43
0.0000000001
 40
0.0
 40
0.0
 40
0.0
 40
0.0
 40
1.0
 40
1.0
 40
1.0
 40
2.0
 40
2.0
 40
2.0
 40
3.0
 40
3.0
 40
3.0
 40
4.0
 40
4.0
 40
4.0
 40
4.0
 10
199.6843545308936
 20
139.9662081315997
 30
0.0
 10
199.6802185894737
 20
143.3351438076357
 30
0.0
 10
196.9458037726434
 20
146.0628529385104
 30
0.0
 10
193.57686809661
 20
146.0587169970905
 30
0.0
 10
190.2079324205766
 20
146.05458105567
 30
0.0
 10
187.4802232897102
 20
143.3201662388306
 30
0.0
 10
187.4843592311314
 20
139.9512305627934
 30
0.0
 10
187.4884951725513
 20
136.5822948867601
 30
0.0
 10
190.2229099893816
 20
133.8545857558936
 30
0.0
 10
193.591845665415
 20
133.8587216973135
 30
0.0
 10
196.9549337260096
 20
133.8628504597909
 30
0.0
 10
199.6802257684162
 20
136.5881425021989
 30
0.0
 10
199.6843545308936
 20
139.9512305627934
 30
0.0
  0
SPLINE
  5
B7
330
70
100
AcDbEntity
  8
Multi-Layer
 62
    18
420
        0
370
     9
100
AcDbSpline
210
0.0
220
0.0
230
1.0
 70
     8
 71
     3
 72
    17
 73
    13
 74
     0
 42
0.0000000001
 43
0.0000000001
 40
0.0
 40
0.0
 40
0.0
 40
0.0
 40
1.0
 40
1.0
 40
1.0
 40
2.0
 40
2.0
 40
2.0
 40
3.0
 40
3.0
 40
3.0
 40
4.0
 40
4.0
 40
4.0
 40
4.0
 10
127.6900311165488
 20
121.9607625915452
 30
0.0
 10
127.6858951751289
 20
125.3296982675786
 30
0.0
 10
124.9514803582986
 20
128.0574073984425
 30
0.0
 10
121.5825446822652
 20
128.0532714570226
 30
0.0
 10
118.2136090062318
 20
128.0491355156027
 30
0.0
 10
115.4858998753648
 20
125.3147206987723
 30
0.0
 10
115.4900358167853
 20
121.945785022739
 30
0.0
 10
115.4941717582052
 20
118.5768493467056
 30
0.0
 10
118.2285865750368
 20
115.8491402158392
 30
0.0
 10
121.5975222510689
 20
115.8532761572603
 30
0.0
 10
124.9606103116648
 20
115.8574049197377
 30
0.0
 10
127.6859023540702
 20
118.5826969621444
 30
0.0
 10
127.6900311165488
 20
121.945785022739
 30
0.0
  0
SPLINE
  5
B8
330
70
100
AcDbEntity
  8
Multi-Layer
 62
    18
420
        0
370
     9
100
AcDbSpline
210
0.0
220
0.0
230
1.0
 70
     8
 71
     3
 72
    17
 73
    13
 74
     0
 42
0.0000000001
 43
0.0000000001
 40
0.0
 40
0.0
 40
0.0
 40
0.0
 40
1.0
 40
1.0
 40
1.0
 40
2.0
 40
2.0
 40
2.0
 40
3.0
 40
3.0
 40
3.0
 40
4.0
 40
4.0
 40
4.0
 40
4.0
 10
145.6816482737671
 20
121.9650200172866
 30
0.0
 10
145.6775123323472
 20
125.3339556933199
 30
0.0
 10
142.9430975155175
 20
128.0616648241851
 30
0.0
 10
139.5741618394841
 20
128.0575288827652
 30
0.0
 10
136.2052261634501
 20
128.053392941344
 30
0.0
 10
133.4775170325837
 20
125.318978124515
 30
0.0
 10
133.4816529740049
 20
121.9500424484816
 30
0.0
 10
133.4857889154248
 20
118.5811067724482
 30
0.0
 10
136.2202037322551
 20
115.8533976415818
 30
0.0
 10
139.5891394082885
 20
115.8575335830017
 30
0.0
 10
142.9522274688831
 20
115.861662345479
 30
0.0
 10
145.6775195112898
 20
118.586954387887
 30
0.0
 10
145.6816482737671
 20
121.9500424484816
 30
0.0
  0
SPLINE
  5
B9
330
70
100
AcDbEntity
  8
Multi-Layer
 62
    18
420
        0
370
     9
100
AcDbSpline
210
0.0
220
0.0
230
1.0
 70
     8
 71
     3
 72
    17
 73
    13
 74
     0
 42
0.0000000001
 43
0.0000000001
 40
0.0
 40
0.0
 40
0.0
 40
0.0
 40
1.0
 40
1.0
 40
1.0
 40
2.0
 40
2.0
 40
2.0
 40
3.0
 40
3.0
 40
3.0
 40
4.0
 40
4.0
 40
4.0
 40
4.0
 10
163.681549259366
 20
121.9611916344504
 30
0.0
 10
163.6774133179461
 20
125.3301273104838
 30
0.0
 10
160.9429985011157
 20
128.0578364413489
 30
0.0
 10
157.5740628250824
 20
128.0537004999291
 30
0.0
 10
154.2051271490496
 20
128.0495645585091
 30
0.0
 10
151.4774180181826
 20
125.3151497416788
 30
0.0
 10
151.4815539596031
 20
121.9462140656454
 30
0.0
 10
151.485689901023
 20
118.577278389612
 30
0.0
 10
154.220104717854
 20
115.8495692587443
 30
0.0
 10
157.5890403938874
 20
115.8537052001642
 30
0.0
 10
160.9521284544819
 20
115.8578339626429
 30
0.0
 10
163.6774204968886
 20
118.5831260050496
 30
0.0
 10
163.681549259366
 20
121.9462140656454
 30
0.0
  0
SPLINE
  5
BA
330
70
100
AcDbEntity
  8
Multi-Layer
 62
    18
420
        0
370
     9
100
AcDbSpline
210
0.0
220
0.0
230
1.0
 70
     8
 71
     3
 72
    17
 73
    13
 74
     0
 42
0.0000000001
 43
0.0000000001
 40
0.0
 40
0.0
 40
0.0
 40
0.0
 40
1.0
 40
1.0
 40
1.0
 40
2.0
 40
2.0
 40
2.0
 40
3.0
 40
3.0
 40
3.0
 40
4.0
 40
4.0
 40
4.0
 40
4.0
 10
181.6793380337443
 20
121.9611916344504
 30
0.0
 10
181.6752020923244
 20
125.3301273104838
 30
0.0
 10
178.9407872754941
 20
128.0578364413489
 30
0.0
 10
175.5718515994607
 20
128.0537004999291
 30
0.0
 10
172.2029159234273
 20
128.0495645585091
 30
0.0
 10
169.4752067925596
 20
125.3151497416788
 30
0.0
 10
169.4793427339808
 20
121.9462140656454
 30
0.0
 10
169.4834786754007
 20
118.577278389612
 30
0.0
 10
172.2178934922323
 20
115.8495692587456
 30
0.0
 10
175.5868291682644
 20
115.8537052001655
 30
0.0
 10
178.9499172288603
 20
115.8578339626429
 30
0.0
 10
181.675209271267
 20
118.5831260050509
 30
0.0
 10
181.6793380337443
 20
121.9462140656454
 30
0.0
  0
SPLINE
  5
BB
330
70
100
AcDbEntity
  8
Multi-Layer
 62
    18
420
        0
370
     9
100
AcDbSpline
210
0.0
220
0.0
230
1.0
 70
     8
 71
     3
 72
    17
 73
    13
 74
     0
 42
0.0000000001
 43
0.0000000001
 40
0.0
 40
0.0
 40
0.0
 40
0.0
 40
1.0
 40
1.0
 40
1.0
 40
2.0
 40
2.0
 40
2.0
 40
3.0
 40
3.0
 40
3.0
 40
4.0
 40
4.0
 40
4.0
 40
4.0
 10
199.6862687223123
 20
121.959277443033
 30
0.0
 10
199.6821327808924
 20
125.3282131190651
 30
0.0
 10
196.9477179640621
 20
128.0559222499302
 30
0.0
 10
193.5787822880287
 20
128.0517863085103
 30
0.0
 10
190.2098466119953
 20
128.0476503670904
 30
0.0
 10
187.4821374811289
 20
125.3132355502601
 30
0.0
 10
187.4862734225501
 20
121.9442998742267
 30
0.0
 10
187.49040936397
 20
118.5753641981933
 30
0.0
 10
190.2248241808016
 20
115.8476550673269
 30
0.0
 10
193.5937598568324
 20
115.8517910087468
 30
0.0
 10
196.9568479174283
 20
115.8559197712254
 30
0.0
 10
199.682139959835
 20
118.5812118136322
 30
0.0
 10
199.6862687223123
 20
121.9442998742267
 30
0.0
  0
CIRCLE
  5
BC
330
70
100
AcDbEntity
  8
Multi-Layer
 62
    18
420
        0
370
     9
100
AcDbCircle
 10
111.3877001416641
 20
189.0516057426651
 30
0.0
 40
1.499999999624739
  0
CIRCLE
  5
BD
330
70
100
AcDbEntity
  8
Multi-Layer
 62
    18
420
        0
370
     9
100
AcDbCircle
 10
111.3876747416131
 20
111.6516819427987
 30
0.0
 40
1.499999999624979
  0
CIRCLE
  5
BE
330
70
100
AcDbEntity
  8
Multi-Layer
 62
    18
420
        0
370
     9
100
AcDbCircle
 10
203.787649341561
 20
189.0516057426651
 30
0.0
 40
1.499999999624418
  0
CIRCLE
  5
BF
330
70
100
AcDbEntity
  8
Multi-Layer
 62
    18
420
        0
370
     9
100
AcDbCircle
 10
203.7877509417648
 20
111.6517835430012
 30
0.0
 40
1.499999999624658
  0
ENDSEC
  0
SECTION
  2
OBJECTS
  0
DICTIONARY
  5
C
330
0
100
AcDbDictionary
281
     1
  3
ACAD_COLOR
350
63
  3
ACAD_DETAILVIEWSTYLE
350
6A
  3
ACAD_GROUP
350
D
  3
ACAD_LAYOUT
350
62
  3
ACAD_MATERIAL
350
10
  3
ACAD_MLEADERSTYLE
350
66
  3
ACAD_MLINESTYLE
350
5F
  3
ACAD_PLOTSETTINGS
350
61
  3
ACAD_PLOTSTYLENAME
350
E
  3
ACAD_SCALELIST
350
42
  3
ACAD_SECTIONVIEWSTYLE
350
68
  3
ACAD_TABLESTYLE
350
64
  3
ACAD_VISUALSTYLE
350
29
  3
ACDB_RECOMPOSE_DATA
350
CC
  3
AcDbVariableDictionary
350
C4
  0
DICTIONARY
  5
63
102
{ACAD_REACTORS
330
C
102
}
330
C
100
AcDbDictionary
281
     1
  0
DICTIONARY
  5
6A
102
{ACAD_REACTORS
330
C
102
}
330
C
100
AcDbDictionary
281
     1
  3
Imperial24
350
6B
  0
DICTIONARY
  5
D
102
{ACAD_REACTORS
330
C
102
}
330
C
100
AcDbDictionary
281
     1
  0
DICTIONARY
  5
62
102
{ACAD_REACTORS
330
C
102
}
330
C
100
AcDbDictionary
281
     1
  3
Layout1
350
6F
  3
Layout2
350
77
  3
Model
350
73
  0
DICTIONARY
  5
10
102
{ACAD_REACTORS
330
C
102
}
330
C
100
AcDbDictionary
281
     1
  3
ByBlock
350
19
  3
ByLayer
350
11
  3
Global
350
21
  0
DICTIONARY
  5
66
102
{ACAD_REACTORS
330
C
102
}
330
C
100
AcDbDictionary
281
     1
  3
Standard
350
67
  0
DICTIONARY
  5
5F
102
{ACAD_REACTORS
330
C
102
}
330
C
100
AcDbDictionary
281
     1
  3
Standard
350
60
  0
DICTIONARY
  5
61
102
{ACAD_REACTORS
330
C
102
}
330
C
100
AcDbDictionary
281
     1
  0
ACDBDICTIONARYWDFLT
  5
E
102
{ACAD_REACTORS
330
C
102
}
330
C
100
AcDbDictionary
281
     1
  3
Normal
350
F
100
AcDbDictionaryWithDefault
340
F
  0
DICTIONARY
  5
42
102
{ACAD_REACTORS
330
C
102
}
330
C
100
AcDbDictionary
281
     1
  3
A0
350
43
  3
A1
350
44
  3
A2
350
45
  3
A3
350
46
  3
A4
350
47
  3
A5
350
48
  3
A6
350
49
  3
A7
350
4A
  3
A8
350
4B
  3
A9
350
4C
  3
B0
350
4D
  3
B1
350
4E
  3
B2
350
4F
  3
B3
350
50
  3
B4
350
51
  3
B5
350
52
  3
B6
350
53
  0
DICTIONARY
  5
68
102
{ACAD_REACTORS
330
C
102
}
330
C
100
AcDbDictionary
281
     1
  3
Imperial24
350
69
  0
DICTIONARY
  5
64
102
{ACAD_REACTORS
330
C
102
}
330
C
100
AcDbDictionary
281
     1
  3
Standard
350
65
  0
DICTIONARY
  5
29
102
{ACAD_REACTORS
330
C
102
}
330
C
100
AcDbDictionary
281
     1
  3
2dWireframe
350
2F
  3
Basic
350
2E
  3
Brighten
350
35
  3
ColorChange
350
39
  3
Conceptual
350
32
  3
Dim
350
34
  3
EdgeColorOff
350
41
  3
Facepattern
350
38
  3
Flat
350
2A
  3
FlatWithEdges
350
2B
  3
Gouraud
350
2C
  3
GouraudWithEdges
350
2D
  3
Hidden
350
31
  3
JitterOff
350
3F
  3
Linepattern
350
37
  3
OverhangOff
350
40
  3
Realistic
350
33
  3
Shaded
350
3E
  3
Shaded with edges
350
3D
  3
Shades of Gray
350
3A
  3
Sketchy
350
3B
  3
Thicken
350
36
  3
Wireframe
350
30
  3
X-Ray
350
3C
  0
XRECORD
  5
CC
102
{ACAD_REACTORS
330
C
102
}
330
C
100
AcDbXrecord
280
     1
 90
        1
330
65
  0
DICTIONARY
  5
C4
102
{ACAD_REACTORS
330
C
102
}
330
C
100
AcDbDictionary
281
     1
  3
CANNOSCALE
350
C9
  3
CMLEADERSTYLE
350
C6
  3
CTABLESTYLE
350
C5
  3
CVIEWDETAILSTYLE
350
C7
  3
CVIEWSECTIONSTYLE
350
C8
  0
ACDBDETAILVIEWSTYLE
  5
6B
102
{ACAD_REACTORS
330
6A
102
}
330
6A
100
AcDbModelDocViewStyle
 70
     0
  3
Imperial24
290
     1
300
Imperial24
 90
        0
100
AcDbDetailViewStyle
 70
     0
 71
     0
 90
        3
 71
     1
340
55
 62
   256
 40
0.24
340
0
 62
   256
 40
0.24
300

 40
0.36
280
     3
 71
     2
340
5D
 90
       25
 62
   256
 71
     3
340
55
 62
   256
 40
0.24
 90
        1
 40
0.75
 90
        1
300
%<\AcVar ViewType \f "%tc1">% %<\AcVar ViewDetailId>%\PSCALE %<\AcVar ViewScale \f "%sn">%
 71
     4
340
5D
 90
       25
 62
   256
340
5D
 90
       25
 62
   256
280
     0
  0
LAYOUT
  5
6F
102
{ACAD_REACTORS
330
62
102
}
330
62
100
AcDbPlotSettings
  1

  2

  4

  6

 40
0.0
 41
0.0
 42
0.0
 43
0.0
 44
0.0
 45
0.0
 46
0.0
 47
0.0
 48
0.0
 49
0.0
140
0.0
141
0.0
142
1.0
143
1.0
 70
   688
 72
     0
 73
     0
 74
     5
  7

 75
    16
147
1.0
 76
     0
 77
     2
 78
   300
148
0.0
149
0.0
100
AcDbLayout
  1
Layout1
 70
     1
 71
     1
 10
0.0
 20
0.0
 11
12.0
 21
9.0
 12
0.0
 22
0.0
 32
0.0
 14
0.0
 24
0.0
 34
0.0
 15
0.0
 25
0.0
 35
0.0
146
0.0
 13
0.0
 23
0.0
 33
0.0
 16
1.0
 26
0.0
 36
0.0
 17
0.0
 27
1.0
 37
0.0
 76
     0
330
6C
  0
LAYOUT
  5
77
102
{ACAD_REACTORS
330
62
102
}
330
62
100
AcDbPlotSettings
  1

  2

  4

  6

 40
0.0
 41
0.0
 42
0.0
 43
0.0
 44
0.0
 45
0.0
 46
0.0
 47
0.0
 48
0.0
 49
0.0
140
0.0
141
0.0
142
1.0
143
1.0
 70
   688
 72
     0
 73
     0
 74
     5
  7

 75
    16
147
1.0
 76
     0
 77
     2
 78
   300
148
0.0
149
0.0
100
AcDbLayout
  1
Layout2
 70
     1
 71
     2
 10
0.0
 20
0.0
 11
12.0
 21
9.0
 12
0.0
 22
0.0
 32
0.0
 14
0.0
 24
0.0
 34
0.0
 15
0.0
 25
0.0
 35
0.0
146
0.0
 13
0.0
 23
0.0
 33
0.0
 16
1.0
 26
0.0
 36
0.0
 17
0.0
 27
1.0
 37
0.0
 76
     0
330
74
  0
LAYOUT
  5
73
102
{ACAD_REACTORS
330
62
102
}
330
62
100
AcDbPlotSettings
  1

  2

  4

  6

 40
0.0
 41
0.0
 42
0.0
 43
0.0
 44
0.0
 45
0.0
 46
0.0
 47
0.0
 48
0.0
 49
0.0
140
0.0
141
0.0
142
1.0
143
1.0
 70
  1712
 72
     0
 73
     0
 74
     0
  7

 75
     0
147
1.0
 76
     0
 77
     2
 78
   300
148
0.0
149
0.0
100
AcDbLayout
  1
Model
 70
     1
 71
     0
 10
0.0
 20
0.0
 11
12.0
 21
9.0
 12
0.0
 22
0.0
 32
0.0
 14
0.0
 24
0.0
 34
0.0
 15
0.0
 25
0.0
 35
0.0
146
0.0
 13
0.0
 23
0.0
 33
0.0
 16
1.0
 26
0.0
 36
0.0
 17
0.0
 27
1.0
 37
0.0
 76
     0
330
70
  0
MATERIAL
  5
19
102
{ACAD_XDICTIONARY
360
1A
102
}
102
{ACAD_REACTORS
330
10
102
}
330
10
100
AcDbMaterial
  1
ByBlock
 72
     0
 43
0.0208333333333333
 43
0.0
 43
0.0
 43
0.0
 43
0.0
 43
0.0208333333333333
 43
0.0
 43
0.0
 43
0.0
 43
0.0
 43
1.0
 43
0.0
 43
0.0
 43
0.0
 43
0.0
 43
1.0
 77
     0
 47
0.0208333333333333
 47
0.0
 47
0.0
 47
0.0
 47
0.0
 47
0.0208333333333333
 47
0.0
 47
0.0
 47
0.0
 47
0.0
 47
1.0
 47
0.0
 47
0.0
 47
0.0
 47
0.0
 47
1.0
171
     0
 49
0.0208333333333333
 49
0.0
 49
0.0
 49
0.0
 49
0.0
 49
0.0208333333333333
 49
0.0
 49
0.0
 49
0.0
 49
0.0
 49
1.0
 49
0.0
 49
0.0
 49
0.0
 49
0.0
 49
1.0
175
     0
142
0.0208333333333333
142
0.0
142
0.0
142
0.0
142
0.0
142
0.0208333333333333
142
0.0
142
0.0
142
0.0
142
0.0
142
1.0
142
0.0
142
0.0
142
0.0
142
0.0
142
1.0
179
     0
144
0.0208333333333333
144
0.0
144
0.0
144
0.0
144
0.0
144
0.0208333333333333
144
0.0
144
0.0
144
0.0
144
0.0
144
1.0
144
0.0
144
0.0
144
0.0
144
0.0
144
1.0
147
0.0208333333333333
147
0.0
147
0.0
147
0.0
147
0.0
147
0.0208333333333333
147
0.0
147
0.0
147
0.0
147
0.0
147
1.0
147
0.0
147
0.0
147
0.0
147
0.0
147
1.0
  0
MATERIAL
  5
11
102
{ACAD_XDICTIONARY
360
12
102
}
102
{ACAD_REACTORS
330
10
102
}
330
10
100
AcDbMaterial
  1
ByLayer
 72
     0
 43
0.0208333333333333
 43
0.0
 43
0.0
 43
0.0
 43
0.0
 43
0.0208333333333333
 43
0.0
 43
0.0
 43
0.0
 43
0.0
 43
1.0
 43
0.0
 43
0.0
 43
0.0
 43
0.0
 43
1.0
 77
     0
 47
0.0208333333333333
 47
0.0
 47
0.0
 47
0.0
 47
0.0
 47
0.0208333333333333
 47
0.0
 47
0.0
 47
0.0
 47
0.0
 47
1.0
 47
0.0
 47
0.0
 47
0.0
 47
0.0
 47
1.0
171
     0
 49
0.0208333333333333
 49
0.0
 49
0.0
 49
0.0
 49
0.0
 49
0.0208333333333333
 49
0.0
 49
0.0
 49
0.0
 49
0.0
 49
1.0
 49
0.0
 49
0.0
 49
0.0
 49
0.0
 49
1.0
175
     0
142
0.0208333333333333
142
0.0
142
0.0
142
0.0
142
0.0
142
0.0208333333333333
142
0.0
142
0.0
142
0.0
142
0.0
142
1.0
142
0.0
142
0.0
142
0.0
142
0.0
142
1.0
179
     0
144
0.0208333333333333
144
0.0
144
0.0
144
0.0
144
0.0
144
0.0208333333333333
144
0.0
144
0.0
144
0.0
144
0.0
144
1.0
144
0.0
144
0.0
144
0.0
144
0.0
144
1.0
147
0.0208333333333333
147
0.0
147
0.0
147
0.0
147
0.0
147
0.0208333333333333
147
0.0
147
0.0
147
0.0
147
0.0
147
1.0
147
0.0
147
0.0
147
0.0
147
0.0
147
1.0
  0
MATERIAL
  5
21
102
{ACAD_XDICTIONARY
360
22
102
}
102
{ACAD_REACTORS
330
10
102
}
330
10
100
AcDbMaterial
  1
Global
 72
     0
 43
0.0208333333333333
 43
0.0
 43
0.0
 43
0.0
 43
0.0
 43
0.0208333333333333
 43
0.0
 43
0.0
 43
0.0
 43
0.0
 43
1.0
 43
0.0
 43
0.0
 43
0.0
 43
0.0
 43
1.0
 77
     0
 47
0.0208333333333333
 47
0.0
 47
0.0
 47
0.0
 47
0.0
 47
0.0208333333333333
 47
0.0
 47
0.0
 47
0.0
 47
0.0
 47
1.0
 47
0.0
 47
0.0
 47
0.0
 47
0.0
 47
1.0
171
     0
 49
0.0208333333333333
 49
0.0
 49
0.0
 49
0.0
 49
0.0
 49
0.0208333333333333
 49
0.0
 49
0.0
 49
0.0
 49
0.0
 49
1.0
 49
0.0
 49
0.0
 49
0.0
 49
0.0
 49
1.0
175
     0
142
0.0208333333333333
142
0.0
142
0.0
142
0.0
142
0.0
142
0.0208333333333333
142
0.0
142
0.0
142
0.0
142
0.0
142
1.0
142
0.0
142
0.0
142
0.0
142
0.0
142
1.0
179
     0
144
0.0208333333333333
144
0.0
144
0.0
144
0.0
144
0.0
144
0.0208333333333333
144
0.0
144
0.0
144
0.0
144
0.0
144
1.0
144
0.0
144
0.0
144
0.0
144
0.0
144
1.0
147
0.0208333333333333
147
0.0
147
0.0
147
0.0
147
0.0
147
0.0208333333333333
147
0.0
147
0.0
147
0.0
147
0.0
147
1.0
147
0.0
147
0.0
147
0.0
147
0.0
147
1.0
  0
MLEADERSTYLE
  5
67
102
{ACAD_REACTORS
330
66
102
}
330
66
100
AcDbMLeaderStyle
179
     2
170
     2
171
     1
172
     0
 90
        2
 40
0.0
 41
0.0
173
     1
 91
-1056964608
340
5B
 92
       -2
290
     1
 42
0.09
291
     1
 43
0.36
  3
Standard
 44
0.18
300

342
55
174
     1
178
     6
175
     1
176
     0
 93
-1056964608
 45
0.18
292
     0
297
     0
 46
0.18
 94
-1056964608
 47
1.0
 49
1.0
140
1.0
293
     1
141
0.0
294
     1
177
     0
142
1.0
295
     1
296
     0
143
0.125
271
     0
272
     9
273
     9
298
     1
  0
MLINESTYLE
  5
60
102
{ACAD_REACTORS
330
5F
102
}
330
5F
100
AcDbMlineStyle
  2
STANDARD
 70
     0
  3

 62
   256
 51
90.0
 52
90.0
 71
     2
 49
0.5
 62
   256
  6
BYLAYER
 49
-0.5
 62
   256
  6
BYLAYER
  0
ACDBPLACEHOLDER
  5
F
102
{ACAD_REACTORS
330
E
102
}
330
E
  0
SCALE
  5
43
102
{ACAD_REACTORS
330
42
102
}
330
42
100
AcDbScale
 70
     0
300
1:1
140
1.0
141
1.0
290
     1
  0
SCALE
  5
44
102
{ACAD_REACTORS
330
42
102
}
330
42
100
AcDbScale
 70
     0
300
1/128" = 1'-0"
140
0.0078125
141
12.0
290
     0
  0
SCALE
  5
45
102
{ACAD_REACTORS
330
42
102
}
330
42
100
AcDbScale
 70
     0
300
1/64" = 1'-0"
140
0.015625
141
12.0
290
     0
  0
SCALE
  5
46
102
{ACAD_REACTORS
330
42
102
}
330
42
100
AcDbScale
 70
     0
300
1/32" = 1'-0"
140
0.03125
141
12.0
290
     0
  0
SCALE
  5
47
102
{ACAD_REACTORS
330
42
102
}
330
42
100
AcDbScale
 70
     0
300
1/16" = 1'-0"
140
0.0625
141
12.0
290
     0
  0
SCALE
  5
48
102
{ACAD_REACTORS
330
42
102
}
330
42
100
AcDbScale
 70
     0
300
3/32" = 1'-0"
140
0.09375
141
12.0
290
     0
  0
SCALE
  5
49
102
{ACAD_REACTORS
330
42
102
}
330
42
100
AcDbScale
 70
     0
300
1/8" = 1'-0"
140
0.125
141
12.0
290
     0
  0
SCALE
  5
4A
102
{ACAD_REACTORS
330
42
102
}
330
42
100
AcDbScale
 70
     0
300
3/16" = 1'-0"
140
0.1875
141
12.0
290
     0
  0
SCALE
  5
4B
102
{ACAD_REACTORS
330
42
102
}
330
42
100
AcDbScale
 70
     0
300
1/4" = 1'-0"
140
0.25
141
12.0
290
     0
  0
SCALE
  5
4C
102
{ACAD_REACTORS
330
42
102
}
330
42
100
AcDbScale
 70
     0
300
3/8" = 1'-0"
140
0.375
141
12.0
290
     0
  0
SCALE
  5
4D
102
{ACAD_REACTORS
330
42
102
}
330
42
100
AcDbScale
 70
     0
300
1/2" = 1'-0"
140
0.5
141
12.0
290
     0
  0
SCALE
  5
4E
102
{ACAD_REACTORS
330
42
102
}
330
42
100
AcDbScale
 70
     0
300
3/4" = 1'-0"
140
0.75
141
12.0
290
     0
  0
SCALE
  5
4F
102
{ACAD_REACTORS
330
42
102
}
330
42
100
AcDbScale
 70
     0
300
1" = 1'-0"
140
1.0
141
12.0
290
     0
  0
SCALE
  5
50
102
{ACAD_REACTORS
330
42
102
}
330
42
100
AcDbScale
 70
     0
300
1-1/2" = 1'-0"
140
1.5
141
12.0
290
     0
  0
SCALE
  5
51
102
{ACAD_REACTORS
330
42
102
}
330
42
100
AcDbScale
 70
     0
300
3" = 1'-0"
140
3.0
141
12.0
290
     0
  0
SCALE
  5
52
102
{ACAD_REACTORS
330
42
102
}
330
42
100
AcDbScale
 70
     0
300
6" = 1'-0"
140
6.0
141
12.0
290
     0
  0
SCALE
  5
53
102
{ACAD_REACTORS
330
42
102
}
330
42
100
AcDbScale
 70
     0
300
1'-0" = 1'-0"
140
12.0
141
12.0
290
     0
  0
ACDBSECTIONVIEWSTYLE
  5
69
102
{ACAD_REACTORS
330
68
102
}
330
68
100
AcDbModelDocViewStyle
 70
     0
  3
Imperial24
290
     1
300
Imperial24
 90
        0
100
AcDbSectionViewStyle
 70
     0
 71
     0
 90
       78
 71
     1
340
55
 62
   256
 40
0.24
340
0
340
0
 62
   256
 40
0.24
300
I, O, Q, S, X, Z
 40
0.48
 90
        3
 40
0.18
 90
        1
 71
     2
340
5D
 90
       25
 62
   256
340
5D
 90
       50
 62
   256
 40
0.24
 40
0.0
 40
0.24
 71
     3
340
55
 62
   256
 40
0.24
 90
        1
 40
0.75
 90
        1
300
%<\AcVar ViewType \f "%tc1">% %<\AcVar ViewSectionStartId>%-%<\AcVar ViewSectionEndId>%\PSCALE %<\AcVar ViewScale \f "%sn">%
 71
     4
 62
   256
 62
   257
300
ANSI31
 40
1.0
 90
        0
290
     0
290
     0
 90
        6
 40
0.0
 40
1.570796326794896
 40
0.2617993877991494
 40
1.308996938995747
 40
-0.2617993877991494
 40
1.832595714594046
  0
TABLESTYLE
  5
65
102
{ACAD_XDICTIONARY
360
CA
102
}
102
{ACAD_REACTORS
330
64
102
}
330
64
100
AcDbTableStyle
280
     0
  3
Standard
 70
     0
 71
     0
 40
0.06
 41
0.06
280
     0
281
     0
  7
Standard
140
0.18
170
     2
 62
     0
 63
     7
283
     0
 90
      512
 91
        0
  1

274
    -2
284
     1
 64
     0
275
    -2
285
     1
 65
     0
276
    -2
286
     1
 66
     0
277
    -2
287
     1
 67
     0
278
    -2
288
     1
 68
     0
279
    -2
289
     1
 69
     0
  7
Standard
140
0.25
170
     5
 62
     0
 63
     7
283
     0
 90
      512
 91
        0
  1

274
    -2
284
     1
 64
     0
275
    -2
285
     1
 65
     0
276
    -2
286
     1
 66
     0
277
    -2
287
     1
 67
     0
278
    -2
288
     1
 68
     0
279
    -2
289
     1
 69
     0
  7
Standard
140
0.18
170
     5
 62
     0
 63
     7
283
     0
 90
      512
 91
        0
  1

274
    -2
284
     1
 64
     0
275
    -2
285
     1
 65
     0
276
    -2
286
     1
 66
     0
277
    -2
287
     1
 67
     0
278
    -2
288
     1
 68
     0
279
    -2
289
     1
 69
     0
  0
VISUALSTYLE
  5
2F
102
{ACAD_REACTORS
330
29
102
}
330
29
100
AcDbVisualStyle
  2
2dWireframe
 70
     4
177
     3
291
     0
 70
    58
 90
        0
176
     1
 90
        2
176
     1
 90
        0
176
     1
 90
        0
176
     1
 40
0.6
176
     1
 40
30.0
176
     1
 62
     7
420
 16777215
176
     1
 90
        1
176
     1
 90
        4
176
     1
 62
     7
176
     1
 62
   257
176
     1
 90
        1
176
     1
 90
        1
176
     1
 40
1.0
176
     1
 90
        0
176
     1
 62
   257
176
     1
 40
1.0
176
     1
 90
        1
176
     1
 90
        6
176
     1
 90
        2
176
     1
 62
     7
176
     1
 90
        5
176
     1
 90
        0
176
     1
 90
        0
176
     1
290
     0
176
     1
 90
        1
176
     1
 40
0.0
176
     1
 90
        0
176
     1
290
     1
176
     1
290
     1
176
     1
290
     0
176
     1
290
     0
176
     1
290
     0
176
     1
290
     0
176
     1
290
     0
176
     1
290
     0
176
     1
290
     0
176
     1
 90
       50
176
     1
 40
0.0
176
     1
 40
1.0
176
     1
 90
        0
176
     1
 62
    18
420
        0
176
     1
 90
       50
176
     1
 90
        3
176
     1
 62
     5
420
      255
176
     1
290
     0
176
     1
 90
       50
176
     1
 90
       50
176
     1
 90
       50
176
     1
290
     0
176
     1
 90
       50
176
     1
 62
   256
176
     0
 40
1.0
176
     0
 90
        2
176
     1
  1
strokes_ogs.tif
176
     1
290
     0
176
     1
 40
1.0
176
     1
 40
1.0
176
     1
  0
VISUALSTYLE
  5
2E
102
{ACAD_REACTORS
330
29
102
}
330
29
100
AcDbVisualStyle
  2
Basic
 70
     7
177
     3
291
     1
 70
    58
 90
        1
176
     1
 90
        0
176
     1
 90
        1
176
     1
 90
        0
176
     1
 40
0.6
176
     1
 40
30.0
176
     1
 62
     7
420
 16777215
176
     1
 90
        0
176
     1
 90
        4
176
     1
 62
     7
176
     1
 62
   257
176
     1
 90
        1
176
     1
 90
        1
176
     1
 40
1.0
176
     1
 90
        8
176
     1
 62
     7
176
     1
 40
1.0
176
     1
 90
        1
176
     1
 90
        6
176
     1
 90
        2
176
     1
 62
     7
176
     1
 90
        5
176
     1
 90
        0
176
     1
 90
        0
176
     1
290
     0
176
     1
 90
        1
176
     1
 40
0.0
176
     1
 90
        0
176
     1
290
     0
176
     1
290
     1
176
     1
290
     1
176
     1
290
     0
176
     1
290
     0
176
     1
290
     0
176
     1
290
     0
176
     1
290
     0
176
     1
290
     0
176
     1
 90
       50
176
     1
 40
0.0
176
     1
 40
1.0
176
     1
 90
        0
176
     1
 62
    18
420
        0
176
     1
 90
       50
176
     1
 90
        3
176
     1
 62
     5
420
      255
176
     1
290
     0
176
     1
 90
       50
176
     1
 90
       50
176
     1
 90
       50
176
     1
290
     0
176
     1
 90
       50
176
     1
 62
   256
176
     0
 40
1.0
176
     0
 90
        2
176
     1
  1
strokes_ogs.tif
176
     1
290
     0
176
     1
 40
1.0
176
     1
 40
1.0
176
     1
  0
VISUALSTYLE
  5
35
102
{ACAD_REACTORS
330
29
102
}
330
29
100
AcDbVisualStyle
  2
Brighten
 70
    12
177
     3
291
     1
 70
    58
 90
        2
176
     1
 90
        2
176
     1
 90
        0
176
     1
 90
        0
176
     1
 40
0.6
176
     1
 40
30.0
176
     1
 62
     7
420
 16777215
176
     1
 90
        1
176
     1
 90
        4
176
     1
 62
     7
176
     1
 62
   257
176
     1
 90
        1
176
     1
 90
        1
176
     1
 40
1.0
176
     1
 90
        8
176
     1
 62
     7
176
     1
 40
1.0
176
     1
 90
        1
176
     1
 90
        6
176
     1
 90
        2
176
     1
 62
     7
176
     1
 90
        5
176
     1
 90
        0
176
     1
 90
        0
176
     1
290
     0
176
     1
 90
        1
176
     1
 40
50.0
176
     1
 90
        0
176
     1
290
     0
176
     1
290
     1
176
     1
290
     1
176
     1
290
     0
176
     1
290
     0
176
     1
290
     0
176
     1
290
     0
176
     1
290
     0
176
     1
290
     0
176
     1
 90
       50
176
     1
 40
0.0
176
     1
 40
1.0
176
     1
 90
        0
176
     1
 62
    18
420
        0
176
     1
 90
       50
176
     1
 90
        3
176
     1
 62
     5
420
      255
176
     1
290
     0
176
     1
 90
       50
176
     1
 90
       50
176
     1
 90
       50
176
     1
290
     0
176
     1
 90
       50
176
     1
 62
   256
176
     0
 40
1.0
176
     0
 90
        2
176
     1
  1
strokes_ogs.tif
176
     1
290
     0
176
     1
 40
1.0
176
     1
 40
1.0
176
     1
  0
VISUALSTYLE
  5
39
102
{ACAD_REACTORS
330
29
102
}
330
29
100
AcDbVisualStyle
  2
ColorChange
 70
    16
177
     3
291
     1
 70
    58
 90
        2
176
     1
 90
        2
176
     1
 90
        3
176
     1
 90
        0
176
     1
 40
0.6
176
     1
 40
30.0
176
     1
 62
     8
420
  8421504
176
     1
 90
        1
176
     1
 90
        4
176
     1
 62
     7
176
     1
 62
   257
176
     1
 90
        1
176
     1
 90
        1
176
     1
 40
1.0
176
     1
 90
        8
176
     1
 62
     8
420
  8421504
176
     1
 40
1.0
176
     1
 90
        1
176
     1
 90
        6
176
     1
 90
        2
176
     1
 62
     7
176
     1
 90
        5
176
     1
 90
        0
176
     1
 90
        0
176
     1
290
     0
176
     1
 90
        1
176
     1
 40
0.0
176
     1
 90
        0
176
     1
290
     0
176
     1
290
     1
176
     1
290
     1
176
     1
290
     0
176
     1
290
     0
176
     1
290
     0
176
     1
290
     0
176
     1
290
     0
176
     1
290
     0
176
     1
 90
       50
176
     1
 40
0.0
176
     1
 40
1.0
176
     1
 90
        0
176
     1
 62
    18
420
        0
176
     1
 90
       50
176
     1
 90
        3
176
     1
 62
     5
420
      255
176
     1
290
     0
176
     1
 90
       50
176
     1
 90
       50
176
     1
 90
       50
176
     1
290
     0
176
     1
 90
       50
176
     1
 62
   256
176
     0
 40
1.0
176
     0
 90
        2
176
     1
  1
strokes_ogs.tif
176
     1
290
     0
176
     1
 40
1.0
176
     1
 40
1.0
176
     1
  0
VISUALSTYLE
  5
32
102
{ACAD_REACTORS
330
29
102
}
330
29
100
AcDbVisualStyle
  2
Conceptual
 70
     9
177
     3
291
     0
 70
    58
 90
        3
176
     1
 90
        2
176
     1
 90
        0
176
     1
 90
        0
176
     1
 40
0.6
176
     1
 40
30.0
176
     1
 62
     7
420
 16777215
176
     1
 90
        2
176
     1
 90
        2
176
     1
 62
     7
176
     1
 62
   257
176
     1
 90
        1
176
     1
 90
        1
176
     1
 40
179.0
176
     1
 90
        8
176
     1
 62
     7
176
     1
 40
1.0
176
     1
 90
        1
176
     1
 90
        6
176
     1
 90
        2
176
     1
 62
     7
176
     1
 90
        3
176
     1
 90
        0
176
     1
 90
        0
176
     1
290
     0
176
     1
 90
        1
176
     1
 40
0.0
176
     1
 90
        0
176
     1
290
     0
176
     1
290
     1
176
     1
290
     1
176
     1
290
     0
176
     1
290
     0
176
     1
290
     0
176
     1
290
     0
176
     1
290
     0
176
     1
290
     0
176
     1
 90
       50
176
     1
 40
0.0
176
     1
 40
1.0
176
     1
 90
        0
176
     1
 62
    18
420
        0
176
     1
 90
       50
176
     1
 90
        3
176
     1
 62
     5
420
      255
176
     1
290
     0
176
     1
 90
       50
176
     1
 90
       50
176
     1
 90
       50
176
     1
290
     0
176
     1
 90
       50
176
     1
 62
   256
176
     0
 40
1.0
176
     0
 90
        2
176
     1
  1
strokes_ogs.tif
176
     1
290
     0
176
     1
 40
1.0
176
     1
 40
1.0
176
     1
  0
VISUALSTYLE
  5
34
102
{ACAD_REACTORS
330
29
102
}
330
29
100
AcDbVisualStyle
  2
Dim
 70
    11
177
     3
291
     1
 70
    58
 90
        2
176
     1
 90
        2
176
     1
 90
        0
176
     1
 90
        0
176
     1
 40
0.6
176
     1
 40
30.0
176
     1
 62
     7
420
 16777215
176
     1
 90
        1
176
     1
 90
        4
176
     1
 62
     7
176
     1
 62
   257
176
     1
 90
        1
176
     1
 90
        1
176
     1
 40
1.0
176
     1
 90
        8
176
     1
 62
     7
176
     1
 40
1.0
176
     1
 90
        1
176
     1
 90
        6
176
     1
 90
        2
176
     1
 62
     7
176
     1
 90
        5
176
     1
 90
        0
176
     1
 90
        0
176
     1
290
     0
176
     1
 90
        1
176
     1
 40
-50.0
176
     1
 90
        0
176
     1
290
     0
176
     1
290
     1
176
     1
290
     1
176
     1
290
     0
176
     1
290
     0
176
     1
290
     0
176
     1
290
     0
176
     1
290
     0
176
     1
290
     0
176
     1
 90
       50
176
     1
 40
0.0
176
     1
 40
1.0
176
     1
 90
        0
176
     1
 62
    18
420
        0
176
     1
 90
       50
176
     1
 90
        3
176
     1
 62
     5
420
      255
176
     1
290
     0
176
     1
 90
       50
176
     1
 90
       50
176
     1
 90
       50
176
     1
290
     0
176
     1
 90
       50
176
     1
 62
   256
176
     0
 40
1.0
176
     0
 90
        2
176
     1
  1
strokes_ogs.tif
176
     1
290
     0
176
     1
 40
1.0
176
     1
 40
1.0
176
     1
  0
VISUALSTYLE
  5
41
102
{ACAD_REACTORS
330
29
102
}
330
29
100
AcDbVisualStyle
  2
EdgeColorOff
 70
    22
177
     3
291
     1
 70
    58
 90
        2
176
     0
 90
        2
176
     0
 90
        0
176
     0
 90
        0
176
     0
 40
0.6
176
     0
 40
30.0
176
     0
 62
     7
420
 16777215
176
     0
 90
        1
176
     0
 90
        4
176
     0
 62
     7
176
     0
 62
   257
176
     0
 90
        1
176
     0
 90
        1
176
     0
 40
1.0
176
     0
 90
        8
176
     2
 62
     7
176
     0
 40
1.0
176
     0
 90
        1
176
     0
 90
        6
176
     0
 90
        2
176
     0
 62
     7
176
     0
 90
        5
176
     0
 90
        0
176
     0
 90
        0
176
     0
290
     0
176
     0
 90
        1
176
     0
 40
0.0
176
     0
 90
        0
176
     0
290
     0
176
     0
290
     1
176
     0
290
     1
176
     0
290
     0
176
     0
290
     0
176
     0
290
     0
176
     0
290
     0
176
     0
290
     0
176
     0
290
     0
176
     0
 90
       50
176
     0
 40
0.0
176
     0
 40
1.0
176
     0
 90
        0
176
     0
 62
    18
420
        0
176
     0
 90
       50
176
     0
 90
        3
176
     0
 62
     5
420
      255
176
     0
290
     0
176
     0
 90
       50
176
     0
 90
       50
176
     0
 90
       50
176
     0
290
     0
176
     0
 90
       50
176
     0
 62
   256
176
     0
 40
1.0
176
     0
 90
        2
176
     0
  1
strokes_ogs.tif
176
     0
290
     0
176
     0
 40
1.0
176
     0
 40
1.0
176
     0
  0
VISUALSTYLE
  5
38
102
{ACAD_REACTORS
330
29
102
}
330
29
100
AcDbVisualStyle
  2
Facepattern
 70
    15
177
     3
291
     1
 70
    58
 90
        2
176
     1
 90
        2
176
     1
 90
        0
176
     1
 90
        0
176
     1
 40
0.6
176
     1
 40
30.0
176
     1
 62
     7
420
 16777215
176
     1
 90
        1
176
     1
 90
        4
176
     1
 62
     7
176
     1
 62
   257
176
     1
 90
        1
176
     1
 90
        1
176
     1
 40
1.0
176
     1
 90
        8
176
     1
 62
     7
176
     1
 40
1.0
176
     1
 90
        1
176
     1
 90
        6
176
     1
 90
        2
176
     1
 62
     7
176
     1
 90
        5
176
     1
 90
        0
176
     1
 90
        0
176
     1
290
     0
176
     1
 90
        1
176
     1
 40
0.0
176
     1
 90
        0
176
     1
290
     0
176
     1
290
     1
176
     1
290
     1
176
     1
290
     0
176
     1
290
     0
176
     1
290
     0
176
     1
290
     0
176
     1
290
     0
176
     1
290
     0
176
     1
 90
       50
176
     1
 40
0.0
176
     1
 40
1.0
176
     1
 90
        0
176
     1
 62
    18
420
        0
176
     1
 90
       50
176
     1
 90
        3
176
     1
 62
     5
420
      255
176
     1
290
     0
176
     1
 90
       50
176
     1
 90
       50
176
     1
 90
       50
176
     1
290
     0
176
     1
 90
       50
176
     1
 62
   256
176
     0
 40
1.0
176
     0
 90
        2
176
     1
  1
strokes_ogs.tif
176
     1
290
     0
176
     1
 40
1.0
176
     1
 40
1.0
176
     1
  0
VISUALSTYLE
  5
2A
102
{ACAD_REACTORS
330
29
102
}
330
29
100
AcDbVisualStyle
  2
Flat
 70
     0
177
     3
291
     1
 70
    58
 90
        2
176
     1
 90
        1
176
     1
 90
        1
176
     1
 90
        2
176
     1
 40
0.6
176
     1
 40
30.0
176
     1
 62
     7
420
 16777215
176
     1
 90
        0
176
     1
 90
        0
176
     1
 62
     7
176
     1
 62
   257
176
     1
 90
        1
176
     1
 90
        1
176
     1
 40
1.0
176
     1
 90
        8
176
     1
 62
     7
176
     1
 40
1.0
176
     1
 90
        1
176
     1
 90
        6
176
     1
 90
        2
176
     1
 62
     7
176
     1
 90
        5
176
     1
 90
        0
176
     1
 90
        0
176
     1
290
     0
176
     1
 90
       13
176
     1
 40
0.0
176
     1
 90
        0
176
     1
290
     0
176
     1
290
     1
176
     1
290
     1
176
     1
290
     0
176
     1
290
     0
176
     1
290
     0
176
     1
290
     0
176
     1
290
     0
176
     1
290
     0
176
     1
 90
       50
176
     1
 40
0.0
176
     1
 40
1.0
176
     1
 90
        0
176
     1
 62
    18
420
        0
176
     1
 90
       50
176
     1
 90
        3
176
     1
 62
     5
420
      255
176
     1
290
     0
176
     1
 90
       50
176
     1
 90
       50
176
     1
 90
       50
176
     1
290
     0
176
     1
 90
       50
176
     1
 62
   256
176
     0
 40
1.0
176
     0
 90
        2
176
     1
  1
strokes_ogs.tif
176
     1
290
     0
176
     1
 40
1.0
176
     1
 40
1.0
176
     1
  0
VISUALSTYLE
  5
2B
102
{ACAD_REACTORS
330
29
102
}
330
29
100
AcDbVisualStyle
  2
FlatWithEdges
 70
     1
177
     3
291
     1
 70
    58
 90
        2
176
     1
 90
        1
176
     1
 90
        1
176
     1
 90
        2
176
     1
 40
0.6
176
     1
 40
30.0
176
     1
 62
     7
420
 16777215
176
     1
 90
        1
176
     1
 90
        0
176
     1
 62
     7
176
     1
 62
   257
176
     1
 90
        1
176
     1
 90
        1
176
     1
 40
1.0
176
     1
 90
        0
176
     1
 62
   257
176
     1
 40
1.0
176
     1
 90
        1
176
     1
 90
        6
176
     1
 90
        2
176
     1
 62
     7
176
     1
 90
        5
176
     1
 90
        0
176
     1
 90
        0
176
     1
290
     0
176
     1
 90
       13
176
     1
 40
0.0
176
     1
 90
        0
176
     1
290
     0
176
     1
290
     1
176
     1
290
     1
176
     1
290
     0
176
     1
290
     0
176
     1
290
     0
176
     1
290
     0
176
     1
290
     0
176
     1
290
     0
176
     1
 90
       50
176
     1
 40
0.0
176
     1
 40
1.0
176
     1
 90
        0
176
     1
 62
    18
420
        0
176
     1
 90
       50
176
     1
 90
        3
176
     1
 62
     5
420
      255
176
     1
290
     0
176
     1
 90
       50
176
     1
 90
       50
176
     1
 90
       50
176
     1
290
     0
176
     1
 90
       50
176
     1
 62
   256
176
     0
 40
1.0
176
     0
 90
        2
176
     1
  1
strokes_ogs.tif
176
     1
290
     0
176
     1
 40
1.0
176
     1
 40
1.0
176
     1
  0
VISUALSTYLE
  5
2C
102
{ACAD_REACTORS
330
29
102
}
330
29
100
AcDbVisualStyle
  2
Gouraud
 70
     2
177
     3
291
     1
 70
    58
 90
        2
176
     1
 90
        2
176
     1
 90
        1
176
     1
 90
        2
176
     1
 40
0.6
176
     1
 40
30.0
176
     1
 62
     7
420
 16777215
176
     1
 90
        0
176
     1
 90
        0
176
     1
 62
     7
176
     1
 62
   257
176
     1
 90
        1
176
     1
 90
        1
176
     1
 40
1.0
176
     1
 90
        0
176
     1
 62
     7
176
     1
 40
1.0
176
     1
 90
        1
176
     1
 90
        6
176
     1
 90
        2
176
     1
 62
     7
176
     1
 90
        5
176
     1
 90
        0
176
     1
 90
        0
176
     1
290
     0
176
     1
 90
       13
176
     1
 40
0.0
176
     1
 90
        0
176
     1
290
     0
176
     1
290
     1
176
     1
290
     1
176
     1
290
     0
176
     1
290
     0
176
     1
290
     0
176
     1
290
     0
176
     1
290
     0
176
     1
290
     0
176
     1
 90
       50
176
     1
 40
0.0
176
     1
 40
1.0
176
     1
 90
        0
176
     1
 62
    18
420
        0
176
     1
 90
       50
176
     1
 90
        3
176
     1
 62
     5
420
      255
176
     1
290
     0
176
     1
 90
       50
176
     1
 90
       50
176
     1
 90
       50
176
     1
290
     0
176
     1
 90
       50
176
     1
 62
   256
176
     0
 40
1.0
176
     0
 90
        2
176
     1
  1
strokes_ogs.tif
176
     1
290
     0
176
     1
 40
1.0
176
     1
 40
1.0
176
     1
  0
VISUALSTYLE
  5
2D
102
{ACAD_REACTORS
330
29
102
}
330
29
100
AcDbVisualStyle
  2
GouraudWithEdges
 70
     3
177
     3
291
     1
 70
    58
 90
        2
176
     1
 90
        2
176
     1
 90
        1
176
     1
 90
        2
176
     1
 40
0.6
176
     1
 40
30.0
176
     1
 62
     7
420
 16777215
176
     1
 90
        1
176
     1
 90
        0
176
     1
 62
     7
176
     1
 62
   257
176
     1
 90
        1
176
     1
 90
        1
176
     1
 40
1.0
176
     1
 90
        0
176
     1
 62
   257
176
     1
 40
1.0
176
     1
 90
        1
176
     1
 90
        6
176
     1
 90
        2
176
     1
 62
     7
176
     1
 90
        5
176
     1
 90
        0
176
     1
 90
        0
176
     1
290
     0
176
     1
 90
       13
176
     1
 40
0.0
176
     1
 90
        0
176
     1
290
     0
176
     1
290
     1
176
     1
290
     1
176
     1
290
     0
176
     1
290
     0
176
     1
290
     0
176
     1
290
     0
176
     1
290
     0
176
     1
290
     0
176
     1
 90
       50
176
     1
 40
0.0
176
     1
 40
1.0
176
     1
 90
        0
176
     1
 62
    18
420
        0
176
     1
 90
       50
176
     1
 90
        3
176
     1
 62
     5
420
      255
176
     1
290
     0
176
     1
 90
       50
176
     1
 90
       50
176
     1
 90
       50
176
     1
290
     0
176
     1
 90
       50
176
     1
 62
   256
176
     0
 40
1.0
176
     0
 90
        2
176
     1
  1
strokes_ogs.tif
176
     1
290
     0
176
     1
 40
1.0
176
     1
 40
1.0
176
     1
  0
VISUALSTYLE
  5
31
102
{ACAD_REACTORS
330
29
102
}
330
29
100
AcDbVisualStyle
  2
Hidden
 70
     6
177
     3
291
     0
 70
    58
 90
        1
176
     1
 90
        2
176
     1
 90
        2
176
     1
 90
        0
176
     1
 40
0.6
176
     1
 40
30.0
176
     1
 62
     7
420
 16777215
176
     1
 90
        2
176
     1
 90
        2
176
     1
 62
     7
176
     1
 62
   257
176
     1
 90
        2
176
     1
 90
        1
176
     1
 40
40.0
176
     1
 90
        0
176
     1
 62
   257
176
     1
 40
1.0
176
     1
 90
        1
176
     1
 90
        6
176
     1
 90
        2
176
     1
 62
     7
176
     1
 90
        3
176
     1
 90
        0
176
     1
 90
        0
176
     1
290
     0
176
     1
 90
        1
176
     1
 40
0.0
176
     1
 90
        0
176
     1
290
     0
176
     1
290
     1
176
     1
290
     1
176
     1
290
     0
176
     1
290
     0
176
     1
290
     0
176
     1
290
     0
176
     1
290
     0
176
     1
290
     0
176
     1
 90
       50
176
     1
 40
0.0
176
     1
 40
1.0
176
     1
 90
        0
176
     1
 62
    18
420
        0
176
     1
 90
       50
176
     1
 90
        3
176
     1
 62
     5
420
      255
176
     1
290
     0
176
     1
 90
       50
176
     1
 90
       50
176
     1
 90
       50
176
     1
290
     0
176
     1
 90
       50
176
     1
 62
   256
176
     0
 40
1.0
176
     0
 90
        2
176
     1
  1
strokes_ogs.tif
176
     1
290
     0
176
     1
 40
1.0
176
     1
 40
1.0
176
     1
  0
VISUALSTYLE
  5
3F
102
{ACAD_REACTORS
330
29
102
}
330
29
100
AcDbVisualStyle
  2
JitterOff
 70
    20
177
     3
291
     1
 70
    58
 90
        2
176
     0
 90
        2
176
     0
 90
        0
176
     0
 90
        0
176
     0
 40
0.6
176
     0
 40
30.0
176
     0
 62
     7
420
 16777215
176
     0
 90
        1
176
     0
 90
        4
176
     0
 62
     7
176
     0
 62
   257
176
     0
 90
        1
176
     0
 90
        1
176
     0
 40
1.0
176
     0
 90
       10
176
     2
 62
     7
176
     0
 40
1.0
176
     0
 90
        1
176
     0
 90
        6
176
     0
 90
        2
176
     0
 62
     7
176
     0
 90
        5
176
     0
 90
        0
176
     0
 90
        0
176
     0
290
     0
176
     0
 90
        1
176
     0
 40
0.0
176
     0
 90
        0
176
     0
290
     0
176
     0
290
     1
176
     0
290
     1
176
     0
290
     0
176
     0
290
     0
176
     0
290
     0
176
     0
290
     0
176
     0
290
     0
176
     0
290
     0
176
     0
 90
       50
176
     0
 40
0.0
176
     0
 40
1.0
176
     0
 90
        0
176
     0
 62
    18
420
        0
176
     0
 90
       50
176
     0
 90
        3
176
     0
 62
     5
420
      255
176
     0
290
     0
176
     0
 90
       50
176
     0
 90
       50
176
     0
 90
       50
176
     0
290
     0
176
     0
 90
       50
176
     0
 62
   256
176
     0
 40
1.0
176
     0
 90
        2
176
     0
  1
strokes_ogs.tif
176
     0
290
     0
176
     0
 40
1.0
176
     0
 40
1.0
176
     0
  0
VISUALSTYLE
  5
37
102
{ACAD_REACTORS
330
29
102
}
330
29
100
AcDbVisualStyle
  2
Linepattern
 70
    14
177
     3
291
     1
 70
    58
 90
        2
176
     1
 90
        2
176
     1
 90
        0
176
     1
 90
        0
176
     1
 40
0.6
176
     1
 40
30.0
176
     1
 62
     7
420
 16777215
176
     1
 90
        1
176
     1
 90
        4
176
     1
 62
     7
176
     1
 62
   257
176
     1
 90
        7
176
     1
 90
        7
176
     1
 40
1.0
176
     1
 90
        8
176
     1
 62
     7
176
     1
 40
1.0
176
     1
 90
        1
176
     1
 90
        6
176
     1
 90
        2
176
     1
 62
     7
176
     1
 90
        5
176
     1
 90
        0
176
     1
 90
        0
176
     1
290
     0
176
     1
 90
        1
176
     1
 40
0.0
176
     1
 90
        0
176
     1
290
     0
176
     1
290
     1
176
     1
290
     1
176
     1
290
     0
176
     1
290
     0
176
     1
290
     0
176
     1
290
     0
176
     1
290
     0
176
     1
290
     0
176
     1
 90
       50
176
     1
 40
0.0
176
     1
 40
1.0
176
     1
 90
        0
176
     1
 62
    18
420
        0
176
     1
 90
       50
176
     1
 90
        3
176
     1
 62
     5
420
      255
176
     1
290
     0
176
     1
 90
       50
176
     1
 90
       50
176
     1
 90
       50
176
     1
290
     0
176
     1
 90
       50
176
     1
 62
   256
176
     0
 40
1.0
176
     0
 90
        2
176
     1
  1
strokes_ogs.tif
176
     1
290
     0
176
     1
 40
1.0
176
     1
 40
1.0
176
     1
  0
VISUALSTYLE
  5
40
102
{ACAD_REACTORS
330
29
102
}
330
29
100
AcDbVisualStyle
  2
OverhangOff
 70
    21
177
     3
291
     1
 70
    58
 90
        2
176
     0
 90
        2
176
     0
 90
        0
176
     0
 90
        0
176
     0
 40
0.6
176
     0
 40
30.0
176
     0
 62
     7
420
 16777215
176
     0
 90
        1
176
     0
 90
        4
176
     0
 62
     7
176
     0
 62
   257
176
     0
 90
        1
176
     0
 90
        1
176
     0
 40
1.0
176
     0
 90
        9
176
     2
 62
     7
176
     0
 40
1.0
176
     0
 90
        1
176
     0
 90
        6
176
     0
 90
        2
176
     0
 62
     7
176
     0
 90
        5
176
     0
 90
        0
176
     0
 90
        0
176
     0
290
     0
176
     0
 90
        1
176
     0
 40
0.0
176
     0
 90
        0
176
     0
290
     0
176
     0
290
     1
176
     0
290
     1
176
     0
290
     0
176
     0
290
     0
176
     0
290
     0
176
     0
290
     0
176
     0
290
     0
176
     0
290
     0
176
     0
 90
       50
176
     0
 40
0.0
176
     0
 40
1.0
176
     0
 90
        0
176
     0
 62
    18
420
        0
176
     0
 90
       50
176
     0
 90
        3
176
     0
 62
     5
420
      255
176
     0
290
     0
176
     0
 90
       50
176
     0
 90
       50
176
     0
 90
       50
176
     0
290
     0
176
     0
 90
       50
176
     0
 62
   256
176
     0
 40
1.0
176
     0
 90
        2
176
     0
  1
strokes_ogs.tif
176
     0
290
     0
176
     0
 40
1.0
176
     0
 40
1.0
176
     0
  0
VISUALSTYLE
  5
33
102
{ACAD_REACTORS
330
29
102
}
330
29
100
AcDbVisualStyle
  2
Realistic
 70
     8
177
     3
291
     0
 70
    58
 90
        2
176
     1
 90
        3
176
     1
 90
        0
176
     1
 90
        2
176
     1
 40
0.6
176
     1
 40
30.0
176
     1
 62
     7
420
 16777215
176
     1
 90
        0
176
     1
 90
        0
176
     1
 62
     7
176
     1
 62
   257
176
     1
 90
        1
176
     1
 90
        1
176
     1
 40
1.0
176
     1
 90
        8
176
     1
 62
   257
176
     1
 40
1.0
176
     1
 90
        1
176
     1
 90
        6
176
     1
 90
        2
176
     1
 62
     7
176
     1
 90
        3
176
     1
 90
        0
176
     1
 90
        0
176
     1
290
     0
176
     1
 90
       13
176
     1
 40
0.0
176
     1
 90
        0
176
     1
290
     0
176
     1
290
     1
176
     1
290
     1
176
     1
290
     0
176
     1
290
     0
176
     1
290
     0
176
     1
290
     0
176
     1
290
     0
176
     1
290
     0
176
     1
 90
       50
176
     1
 40
0.0
176
     1
 40
1.0
176
     1
 90
        0
176
     1
 62
    18
420
        0
176
     1
 90
       50
176
     1
 90
        3
176
     1
 62
     5
420
      255
176
     1
290
     0
176
     1
 90
       50
176
     1
 90
       50
176
     1
 90
       50
176
     1
290
     0
176
     1
 90
       50
176
     1
 62
   256
176
     0
 40
1.0
176
     0
 90
        2
176
     1
  1
strokes_ogs.tif
176
     1
290
     0
176
     1
 40
1.0
176
     1
 40
1.0
176
     1
  0
VISUALSTYLE
  5
3E
102
{ACAD_REACTORS
330
29
102
}
330
29
100
AcDbVisualStyle
  2
Shaded
 70
    27
177
     3
291
     0
 70
    58
 90
        2
176
     1
 90
        2
176
     1
 90
        1
176
     1
 90
        2
176
     1
 40
0.6
176
     1
 40
30.0
176
     1
 62
     7
420
 16777215
176
     1
 90
        0
176
     1
 90
        4
176
     1
 62
     7
176
     1
 62
   257
176
     1
 90
        1
176
     1
 90
        1
176
     1
 40
1.0
176
     1
 90
        8
176
     1
 62
   257
176
     1
 40
1.0
176
     1
 90
        1
176
     1
 90
        6
176
     1
 90
        2
176
     1
 62
     8
420
  7895160
176
     1
 90
        3
176
     1
 90
        0
176
     1
 90
        0
176
     1
290
     0
176
     1
 90
        5
176
     1
 40
0.0
176
     1
 90
        0
176
     1
290
     0
176
     1
290
     1
176
     1
290
     1
176
     1
290
     0
176
     1
290
     0
176
     1
290
     0
176
     1
290
     0
176
     1
290
     0
176
     1
290
     0
176
     1
 90
       50
176
     1
 40
0.0
176
     1
 40
1.0
176
     1
 90
        0
176
     1
 62
    18
420
        0
176
     1
 90
       50
176
     1
 90
        3
176
     1
 62
     5
420
      255
176
     1
290
     0
176
     1
 90
       50
176
     1
 90
       50
176
     1
 90
       50
176
     1
290
     0
176
     1
 90
       50
176
     1
 62
   256
176
     0
 40
1.0
176
     0
 90
        2
176
     1
  1
strokes_ogs.tif
176
     1
290
     0
176
     1
 40
1.0
176
     1
 40
1.0
176
     1
  0
VISUALSTYLE
  5
3D
102
{ACAD_REACTORS
330
29
102
}
330
29
100
AcDbVisualStyle
  2
Shaded with edges
 70
    26
177
     3
291
     0
 70
    58
 90
        2
176
     1
 90
        2
176
     1
 90
        1
176
     1
 90
        2
176
     1
 40
0.6
176
     1
 40
30.0
176
     1
 62
     7
420
 16777215
176
     1
 90
        1
176
     1
 90
        2
176
     1
 62
     7
176
     1
 62
   257
176
     1
 90
        2
176
     1
 90
        1
176
     1
 40
1.0
176
     1
 90
        8
176
     1
 62
   257
176
     1
 40
1.0
176
     1
 90
        1
176
     1
 90
        6
176
     1
 90
        2
176
     1
 62
     7
176
     1
 90
        3
176
     1
 90
        0
176
     1
 90
        0
176
     1
290
     0
176
     1
 90
        5
176
     1
 40
0.0
176
     1
 90
        0
176
     1
290
     0
176
     1
290
     1
176
     1
290
     1
176
     1
290
     0
176
     1
290
     0
176
     1
290
     0
176
     1
290
     0
176
     1
290
     0
176
     1
290
     0
176
     1
 90
       50
176
     1
 40
0.0
176
     1
 40
1.0
176
     1
 90
        0
176
     1
 62
    18
420
        0
176
     1
 90
       50
176
     1
 90
        3
176
     1
 62
     5
420
      255
176
     1
290
     0
176
     1
 90
       50
176
     1
 90
       50
176
     1
 90
       50
176
     1
290
     0
176
     1
 90
       50
176
     1
 62
   256
176
     0
 40
1.0
176
     0
 90
        2
176
     1
  1
strokes_ogs.tif
176
     1
290
     0
176
     1
 40
1.0
176
     1
 40
1.0
176
     1
  0
VISUALSTYLE
  5
3A
102
{ACAD_REACTORS
330
29
102
}
330
29
100
AcDbVisualStyle
  2
Shades of Gray
 70
    23
177
     3
291
     0
 70
    58
 90
        2
176
     1
 90
        2
176
     1
 90
        3
176
     1
 90
        0
176
     1
 40
0.6
176
     1
 40
30.0
176
     1
 62
     7
420
 16777215
176
     1
 90
        2
176
     1
 90
        2
176
     1
 62
     7
176
     1
 62
     7
176
     1
 90
        1
176
     1
 90
        1
176
     1
 40
40.0
176
     1
 90
        8
176
     1
 62
     7
176
     1
 40
1.0
176
     1
 90
        1
176
     1
 90
        6
176
     1
 90
        2
176
     1
 62
     7
176
     1
 90
        3
176
     1
 90
        0
176
     1
 90
        0
176
     1
290
     0
176
     1
 90
        1
176
     1
 40
0.0
176
     1
 90
        0
176
     1
290
     0
176
     1
290
     1
176
     1
290
     1
176
     1
290
     0
176
     1
290
     0
176
     1
290
     0
176
     1
290
     0
176
     1
290
     0
176
     1
290
     0
176
     1
 90
       50
176
     1
 40
0.0
176
     1
 40
1.0
176
     1
 90
        0
176
     1
 62
    18
420
        0
176
     1
 90
       50
176
     1
 90
        3
176
     1
 62
     5
420
      255
176
     1
290
     0
176
     1
 90
       50
176
     1
 90
       50
176
     1
 90
       50
176
     1
290
     0
176
     1
 90
       50
176
     1
 62
   256
176
     0
 40
1.0
176
     0
 90
        2
176
     1
  1
strokes_ogs.tif
176
     1
290
     0
176
     1
 40
1.0
176
     1
 40
1.0
176
     1
  0
VISUALSTYLE
  5
3B
102
{ACAD_REACTORS
330
29
102
}
330
29
100
AcDbVisualStyle
  2
Sketchy
 70
    24
177
     3
291
     0
 70
    58
 90
        1
176
     1
 90
        2
176
     1
 90
        2
176
     1
 90
        0
176
     1
 40
0.6
176
     1
 40
30.0
176
     1
 62
     7
420
 16777215
176
     1
 90
        2
176
     1
 90
        2
176
     1
 62
     7
176
     1
 62
     7
176
     1
 90
        1
176
     1
 90
        1
176
     1
 40
40.0
176
     1
 90
       11
176
     1
 62
     7
176
     1
 40
1.0
176
     1
 90
        1
176
     1
 90
        6
176
     1
 90
        2
176
     1
 62
     7
176
     1
 90
        6
176
     1
 90
        0
176
     1
 90
        0
176
     1
290
     0
176
     1
 90
        1
176
     1
 40
0.0
176
     1
 90
        0
176
     1
290
     0
176
     1
290
     1
176
     1
290
     1
176
     1
290
     0
176
     1
290
     0
176
     1
290
     0
176
     1
290
     0
176
     1
290
     0
176
     1
290
     0
176
     1
 90
       50
176
     1
 40
0.0
176
     1
 40
1.0
176
     1
 90
        0
176
     1
 62
    18
420
        0
176
     1
 90
       50
176
     1
 90
        3
176
     1
 62
     5
420
      255
176
     1
290
     0
176
     1
 90
       50
176
     1
 90
       50
176
     1
 90
       50
176
     1
290
     0
176
     1
 90
       50
176
     1
 62
   256
176
     0
 40
1.0
176
     0
 90
        2
176
     1
  1
strokes_ogs.tif
176
     1
290
     0
176
     1
 40
1.0
176
     1
 40
1.0
176
     1
  0
VISUALSTYLE
  5
36
102
{ACAD_REACTORS
330
29
102
}
330
29
100
AcDbVisualStyle
  2
Thicken
 70
    13
177
     3
291
     1
 70
    58
 90
        2
176
     1
 90
        2
176
     1
 90
        0
176
     1
 90
        0
176
     1
 40
0.6
176
     1
 40
30.0
176
     1
 62
     7
420
 16777215
176
     1
 90
        1
176
     1
 90
        4
176
     1
 62
     7
176
     1
 62
   257
176
     1
 90
        1
176
     1
 90
        1
176
     1
 40
1.0
176
     1
 90
       12
176
     1
 62
     7
176
     1
 40
1.0
176
     1
 90
        1
176
     1
 90
        6
176
     1
 90
        2
176
     1
 62
     7
176
     1
 90
        5
176
     1
 90
        0
176
     1
 90
        0
176
     1
290
     0
176
     1
 90
        1
176
     1
 40
0.0
176
     1
 90
        0
176
     1
290
     0
176
     1
290
     1
176
     1
290
     1
176
     1
290
     0
176
     1
290
     0
176
     1
290
     0
176
     1
290
     0
176
     1
290
     0
176
     1
290
     0
176
     1
 90
       50
176
     1
 40
0.0
176
     1
 40
1.0
176
     1
 90
        0
176
     1
 62
    18
420
        0
176
     1
 90
       50
176
     1
 90
        3
176
     1
 62
     5
420
      255
176
     1
290
     0
176
     1
 90
       50
176
     1
 90
       50
176
     1
 90
       50
176
     1
290
     0
176
     1
 90
       50
176
     1
 62
   256
176
     0
 40
1.0
176
     0
 90
        2
176
     1
  1
strokes_ogs.tif
176
     1
290
     0
176
     1
 40
1.0
176
     1
 40
1.0
176
     1
  0
VISUALSTYLE
  5
30
102
{ACAD_REACTORS
330
29
102
}
330
29
100
AcDbVisualStyle
  2
Wireframe
 70
     5
177
     3
291
     0
 70
    58
 90
        0
176
     1
 90
        2
176
     1
 90
        0
176
     1
 90
        0
176
     1
 40
0.6
176
     1
 40
30.0
176
     1
 62
     7
420
 16777215
176
     1
 90
        1
176
     1
 90
        4
176
     1
 62
     7
176
     1
 62
   257
176
     1
 90
        1
176
     1
 90
        1
176
     1
 40
1.0
176
     1
 90
        0
176
     1
 62
   257
176
     1
 40
1.0
176
     1
 90
        1
176
     1
 90
        6
176
     1
 90
        2
176
     1
 62
     7
176
     1
 90
        3
176
     1
 90
        0
176
     1
 90
        0
176
     1
290
     0
176
     1
 90
        1
176
     1
 40
0.0
176
     1
 90
        0
176
     1
290
     0
176
     1
290
     1
176
     1
290
     1
176
     1
290
     0
176
     1
290
     0
176
     1
290
     0
176
     1
290
     0
176
     1
290
     0
176
     1
290
     0
176
     1
 90
       50
176
     1
 40
0.0
176
     1
 40
1.0
176
     1
 90
        0
176
     1
 62
    18
420
        0
176
     1
 90
       50
176
     1
 90
        3
176
     1
 62
     5
420
      255
176
     1
290
     0
176
     1
 90
       50
176
     1
 90
       50
176
     1
 90
       50
176
     1
290
     0
176
     1
 90
       50
176
     1
 62
   256
176
     0
 40
1.0
176
     0
 90
        2
176
     1
  1
strokes_ogs.tif
176
     1
290
     0
176
     1
 40
1.0
176
     1
 40
1.0
176
     1
  0
VISUALSTYLE
  5
3C
102
{ACAD_REACTORS
330
29
102
}
330
29
100
AcDbVisualStyle
  2
X-Ray
 70
    25
177
     3
291
     0
 70
    58
 90
        2
176
     1
 90
        2
176
     1
 90
        1
176
     1
 90
        1
176
     1
 40
0.5
176
     1
 40
30.0
176
     1
 62
     7
420
 16777215
176
     1
 90
        1
176
     1
 90
        0
176
     1
 62
     7
176
     1
 62
   257
176
     1
 90
        1
176
     1
 90
        1
176
     1
 40
1.0
176
     1
 90
        8
176
     1
 62
     7
176
     1
 40
1.0
176
     1
 90
        1
176
     1
 90
        6
176
     1
 90
        2
176
     1
 62
     7
176
     1
 90
        3
176
     1
 90
        0
176
     1
 90
        0
176
     1
290
     0
176
     1
 90
       13
176
     1
 40
0.0
176
     1
 90
        0
176
     1
290
     0
176
     1
290
     1
176
     1
290
     1
176
     1
290
     0
176
     1
290
     0
176
     1
290
     0
176
     1
290
     0
176
     1
290
     0
176
     1
290
     0
176
     1
 90
       50
176
     1
 40
0.0
176
     1
 40
1.0
176
     1
 90
        0
176
     1
 62
    18
420
        0
176
     1
 90
       50
176
     1
 90
        3
176
     1
 62
     5
420
      255
176
     1
290
     0
176
     1
 90
       50
176
     1
 90
       50
176
     1
 90
       50
176
     1
290
     0
176
     1
 90
       50
176
     1
 62
   256
176
     0
 40
1.0
176
     0
 90
        2
176
     1
  1
strokes_ogs.tif
176
     1
290
     0
176
     1
 40
1.0
176
     1
 40
1.0
176
     1
  0
DICTIONARYVAR
  5
C9
102
{ACAD_REACTORS
330
C4
102
}
330
C4
100
DictionaryVariables
280
     0
  1
1:1
  0
DICTIONARYVAR
  5
C6
102
{ACAD_REACTORS
330
C4
102
}
330
C4
100
DictionaryVariables
280
     0
  1
STANDARD
  0
DICTIONARYVAR
  5
C5
102
{ACAD_REACTORS
330
C4
102
}
330
C4
100
DictionaryVariables
280
     0
  1
STANDARD
  0
DICTIONARYVAR
  5
C7
102
{ACAD_REACTORS
330
C4
102
}
330
C4
100
DictionaryVariables
280
     0
  1
Imperial24
  0
DICTIONARYVAR
  5
C8
102
{ACAD_REACTORS
330
C4
102
}
330
C4
100
DictionaryVariables
280
     0
  1
Imperial24
  0
DICTIONARY
  5
1A
330
19
100
AcDbDictionary
280
     1
281
     1
  3
BUMPTILE
360
1C
  3
DIFFUSETILE
360
1B
  3
OPACITYTILE
360
1F
  3
REFLECTIONTILE
360
1E
  3
REFRACTIONTILE
360
20
  3
SPECULARTILE
360
1D
  0
DICTIONARY
  5
12
330
11
100
AcDbDictionary
280
     1
281
     1
  3
BUMPTILE
360
14
  3
DIFFUSETILE
360
13
  3
OPACITYTILE
360
17
  3
REFLECTIONTILE
360
16
  3
REFRACTIONTILE
360
18
  3
SPECULARTILE
360
15
  0
DICTIONARY
  5
22
330
21
100
AcDbDictionary
280
     1
281
     1
  3
BUMPTILE
360
24
  3
DIFFUSETILE
360
23
  3
OPACITYTILE
360
27
  3
REFLECTIONTILE
360
26
  3
REFRACTIONTILE
360
28
  3
SPECULARTILE
360
25
  0
DICTIONARY
  5
CA
330
65
100
AcDbDictionary
280
     1
281
     1
  3
ACAD_ROUNDTRIP_2008_TABLESTYLE_CELLSTYLEMAP
360
CB
  0
XRECORD
  5
1C
102
{ACAD_REACTORS
330
1A
102
}
330
1A
100
AcDbXrecord
280
     1
270
     1
271
     1
  0
XRECORD
  5
1B
102
{ACAD_REACTORS
330
1A
102
}
330
1A
100
AcDbXrecord
280
     1
270
     1
271
     1
  0
XRECORD
  5
1F
102
{ACAD_REACTORS
330
1A
102
}
330
1A
100
AcDbXrecord
280
     1
270
     1
271
     1
  0
XRECORD
  5
1E
102
{ACAD_REACTORS
330
1A
102
}
330
1A
100
AcDbXrecord
280
     1
270
     1
271
     1
  0
XRECORD
  5
20
102
{ACAD_REACTORS
330
1A
102
}
330
1A
100
AcDbXrecord
280
     1
270
     1
271
     1
  0
XRECORD
  5
1D
102
{ACAD_REACTORS
330
1A
102
}
330
1A
100
AcDbXrecord
280
     1
270
     1
271
     1
  0
XRECORD
  5
14
102
{ACAD_REACTORS
330
12
102
}
330
12
100
AcDbXrecord
280
     1
270
     1
271
     1
  0
XRECORD
  5
13
102
{ACAD_REACTORS
330
12
102
}
330
12
100
AcDbXrecord
280
     1
270
     1
271
     1
  0
XRECORD
  5
17
102
{ACAD_REACTORS
330
12
102
}
330
12
100
AcDbXrecord
280
     1
270
     1
271
     1
  0
XRECORD
  5
16
102
{ACAD_REACTORS
330
12
102
}
330
12
100
AcDbXrecord
280
     1
270
     1
271
     1
  0
XRECORD
  5
18
102
{ACAD_REACTORS
330
12
102
}
330
12
100
AcDbXrecord
280
     1
270
     1
271
     1
  0
XRECORD
  5
15
102
{ACAD_REACTORS
330
12
102
}
330
12
100
AcDbXrecord
280
     1
270
     1
271
     1
  0
XRECORD
  5
24
102
{ACAD_REACTORS
330
22
102
}
330
22
100
AcDbXrecord
280
     1
270
     1
271
     1
  0
XRECORD
  5
23
102
{ACAD_REACTORS
330
22
102
}
330
22
100
AcDbXrecord
280
     1
270
     1
271
     1
  0
XRECORD
  5
27
102
{ACAD_REACTORS
330
22
102
}
330
22
100
AcDbXrecord
280
     1
270
     1
271
     1
  0
XRECORD
  5
26
102
{ACAD_REACTORS
330
22
102
}
330
22
100
AcDbXrecord
280
     1
270
     1
271
     1
  0
XRECORD
  5
28
102
{ACAD_REACTORS
330
22
102
}
330
22
100
AcDbXrecord
280
     1
270
     1
271
     1
  0
XRECORD
  5
25
102
{ACAD_REACTORS
330
22
102
}
330
22
100
AcDbXrecord
280
     1
270
     1
271
     1
  0
CELLSTYLEMAP
  5
CB
102
{ACAD_REACTORS
330
CA
102
}
330
CA
100
AcDbCellStyleMap
 90
        3
300
CELLSTYLE
  1
TABLEFORMAT_BEGIN
 90
        5
170
     1
 91
        0
 92
    32768
 62
   257
 93
        1
300
CONTENTFORMAT
  1
CONTENTFORMAT_BEGIN
 90
        0
 91
        0
 92
      512
 93
        0
300

 40
0.0
140
1.0
 94
        5
 62
     0
340
55
144
0.25
309
CONTENTFORMAT_END
171
     0
 94
        0
309
TABLEFORMAT_END
  1
CELLSTYLE_BEGIN
 90
        1
 91
        1
300
_TITLE
309
CELLSTYLE_END
300
CELLSTYLE
  1
TABLEFORMAT_BEGIN
 90
        5
170
     1
 91
        0
 92
        0
 62
   257
 93
        1
300
CONTENTFORMAT
  1
CONTENTFORMAT_BEGIN
 90
        0
 91
        0
 92
      512
 93
        0
300

 40
0.0
140
1.0
 94
        5
 62
     0
340
55
144
0.18
309
CONTENTFORMAT_END
171
     0
 94
        0
309
TABLEFORMAT_END
  1
CELLSTYLE_BEGIN
 90
        2
 91
        1
300
_HEADER
309
CELLSTYLE_END
300
CELLSTYLE
  1
TABLEFORMAT_BEGIN
 90
        5
170
     1
 91
        0
 92
        0
 62
   257
 93
        1
300
CONTENTFORMAT
  1
CONTENTFORMAT_BEGIN
 90
        0
 91
        0
 92
      512
 93
        0
300

 40
0.0
140
1.0
 94
        2
 62
     0
340
55
144
0.18
309
CONTENTFORMAT_END
171
     0
 94
        0
309
TABLEFORMAT_END
  1
CELLSTYLE_BEGIN
 90
        3
 91
        2
300
_DATA
309
CELLSTYLE_END
  0
ENDSEC
  0
EOF
